<?xml version="1.0" encoding="utf-8"?>
<!-- Generator: Adobe Illustrator 16.0.0, SVG Export Plug-In . SVG Version: 6.00 Build 0)  -->
<!DOCTYPE svg PUBLIC "-//W3C//DTD SVG 1.1//EN" "http://www.w3.org/Graphics/SVG/1.1/DTD/svg11.dtd">
<svg version="1.1" xmlns="http://www.w3.org/2000/svg" xmlns:xlink="http://www.w3.org/1999/xlink" x="0px" y="0px" width="734px"
	 height="483px" viewBox="0 0 734 483" enable-background="new 0 0 734 483" xml:space="preserve">
<g id="Fills">
</g>
<g id="Outlines">
	<g>
		<g>
			<linearGradient id="SVGID_1_" gradientUnits="userSpaceOnUse" x1="60.9204" y1="334.1338" x2="60.9204" y2="161.1255">
				<stop  offset="0" style="stop-color:#29ABCA"/>
				<stop  offset="1" style="stop-color:#F0AC5F"/>
			</linearGradient>
			<path fill="url(#SVGID_1_)" d="M60.002,160.857c-2.46,12.965-1.303,27.219-1.346,40.375c-0.047,14.82-0.096,29.64-0.1,44.46
				c-0.009,29.506-0.345,58.979,1.327,88.441c0.08,1.398,2.261,1.406,2.182,0c-0.035-0.609-0.069-1.22-0.104-1.829
				c-0.072-1.271-1.901-1.271-1.974,0c-0.035,0.609-0.069,1.22-0.104,1.829c-0.08,1.406,2.102,1.398,2.182,0
				c1.636-28.82,1.336-57.642,1.328-86.504c-0.004-14.824-0.047-29.648-0.095-44.473c-0.022-7.037-0.059-14.073-0.191-21.109
				c-0.133-7.024,0.154-14.265-1.16-21.191C61.763,159.891,60.185,159.891,60.002,160.857L60.002,160.857z"/>
		</g>
	</g>
	<g>
		<g>
			<linearGradient id="SVGID_2_" gradientUnits="userSpaceOnUse" x1="115.2793" y1="168.9277" x2="115.2793" y2="328.2065">
				<stop  offset="0" style="stop-color:#29ABCA"/>
				<stop  offset="1" style="stop-color:#F0AC5F"/>
			</linearGradient>
			<path fill="url(#SVGID_2_)" d="M114.53,168.72c-1.393,5.354-1.275,11.224-1.417,16.727c-0.176,6.824-0.123,13.663-0.148,20.488
				c-0.05,13.812-0.117,27.623-0.109,41.435c0.016,26.939-0.562,53.946,1.249,80.836c0.103,1.521,2.258,1.521,2.36,0
				c1.769-26.267,1.233-52.639,1.248-78.952c0.008-13.815-0.051-27.629-0.101-41.444c-0.025-6.837-0.077-13.674-0.138-20.512
				c-0.055-6.078,0.104-12.666-1.434-18.578C115.846,167.971,114.725,167.971,114.53,168.72L114.53,168.72z"/>
		</g>
	</g>
	<g>
		<g>
			<path fill="#F0AC5F" d="M58.932,162.188c-5.542,1.658-8.416,8.143-12.613,11.744c-1.167,1.001,0.322,2.735,1.585,2.054
				c6.18-3.333,10.993-8.857,13.515-15.401c-0.859,0.112-1.718,0.225-2.577,0.337c3.071,5.633,7.331,15.674,14.948,15.866
				c0.89,0.022,1.339-1.122,0.718-1.734c-2.6-2.563-5.716-4.002-8.023-7.028c-2.014-2.642-3.542-5.665-5.208-8.527
				c-0.656-1.126-2.166-0.764-2.577,0.337c-2.195,5.887-6.666,10.831-12.116,13.891c0.528,0.685,1.057,1.37,1.585,2.054
				c4.201-3.738,6.784-8.801,11.378-12.137C60.239,163.141,59.853,161.912,58.932,162.188L58.932,162.188z"/>
		</g>
	</g>
	<g>
		<g>
			<path fill="#F0AC5F" d="M111.567,327.97c-0.765-5.513-3.998-10.23-5.082-15.674c-0.846,0.233-1.692,0.466-2.538,0.699
				c1.997,7.108,7.16,12.501,9.903,19.27c0.427,1.055,1.585,1.452,2.487,0.656c6.387-5.637,11.08-13.175,19.504-16.015
				c1.91-0.645,1.085-3.685-0.835-3.029c-9.067,3.099-13.944,10.797-20.774,16.94c0.829,0.219,1.658,0.438,2.487,0.656
				c-2.808-6.748-8.106-12.139-10.234-19.178c-0.492-1.626-2.925-0.953-2.538,0.699c1.27,5.415,4.317,10.131,5.902,15.447
				C110.188,329.576,111.721,329.074,111.567,327.97L111.567,327.97z"/>
		</g>
	</g>
	<g>
		<g>
			<g>
				<path fill="#C78D46" d="M5.781,137.312c3.161-0.772,6.135-1.974,9.416-2.21c2.071-0.303,3.385,0.701,3.94,3.012
					c-0.664,0.942-1.5,1.697-2.508,2.264c-1.759,1.184-3.838,1.869-5.888,2.33c-1.553,0.349-1.287,2.406,0,2.878
					c3.868,1.419,14.128,6.501,11.442,11.857c-1.814,3.617-12.898,4.809-13.592,0.127c-0.159-1.076-1.623-1.014-2.113-0.276
					c-4.794,7.222,12.414,7.205,15.872,4.472c9.705-7.669-3.658-16.548-10.816-19.059c0,0.959,0,1.918,0,2.878
					c3.011-0.771,13.157-4.843,10.147-9.744c-3.608-5.875-11.674-1.69-16.292,0.543C4.854,136.643,5.24,137.444,5.781,137.312
					L5.781,137.312z"/>
			</g>
		</g>
		<g>
			<g>
				<path fill="#C78D46" d="M33.289,123.042c-0.096-0.616-0.625-1.149-0.617-1.781c0.006-0.465-0.669-0.668-0.893-0.242
					c-0.679,1.296-0.433,2.91-0.4,4.34c0.051,2.208-0.046,4.315-1.127,6.288c-0.738,1.346,1.238,2.494,2.051,1.198
					c1.021-1.627,1.171-3.527,1.173-5.406c0.002-1.933,0.09-4.703-0.869-6.419c-0.276,0.161-0.551,0.322-0.827,0.483
					c0.304,0.67,0.948,0.884,1.148,1.639C32.991,123.381,33.326,123.275,33.289,123.042L33.289,123.042z"/>
			</g>
		</g>
	</g>
	<g>
		<g>
			<path fill="#C78D46" d="M157.657,318.282c-0.207-0.696-0.494-0.678-1.214-0.839c0.162,0.398,0.324,0.797,0.487,1.195
				c0.681-1.291,4.556-1.035,5.718-1.129c2.53-0.207,4.756,0.391,6.976,1.64c5.046,2.84-6.9,7.359-8.081,7.756
				c-1.787,0.601-1.297,2.87,0.419,3.097c8.442,1.118,19.614,11.377,11.17,19.323c-3.542,3.333-8.972,4.071-13.478,2.789
				c-5.026-1.43-6.908-6.097-7.06-10.872c-0.067-2.123-3.024-2.039-3.234,0c-1.565,15.174,16.528,18.223,26.236,10.548
				c12-9.487-3.35-23.78-13.635-24.94c0.14,1.032,0.279,2.064,0.419,3.097c3.363-1.204,12.817-4.431,11.576-9.563
				c-1.77-7.319-12.704-5.829-17.744-3.873c-0.444,0.173-0.655,0.461-0.709,0.932c-0.03,0.263-0.061,0.524-0.091,0.787
				c-0.067,0.583,0.567,0.85,1.031,0.785c0.053-0.008,0.904-0.375,0.868-0.385C157.515,318.689,157.717,318.486,157.657,318.282
				L157.657,318.282z"/>
		</g>
	</g>
	<g>
		<g>
			<path fill="#C78D46" d="M178.145,309.122c-0.148,0.936,0.319,2.071,0.48,3.009c0.253,1.467,0.292,2.914,0.339,4.396
				c0.054,1.678,2.6,1.687,2.609,0c0.014-2.416-0.5-5.648-2.108-7.545c-0.253-0.299-0.665-0.264-0.982-0.127
				C178.363,308.906,178.171,308.96,178.145,309.122L178.145,309.122z"/>
		</g>
	</g>
	<g>
		<g>
			<path fill="#1C758A" d="M26.46,311.645c-2.093,2.928-4.488,4.313-7.879,5.329c-2.07,0.619-5.042,0.166-6.848,1.224
				c-1.452,0.851-1.744,3.517-2.385,4.996c-1.357,3.134-2.92,6.148-4.673,9.078c-0.535,0.894,0.135,2.382,1.292,2.251
				c4.875-0.55,12.856-1.244,15.845,3.599c2.624,4.252-1.703,7.209-5.123,8.259c-1.483,0.455-3.045,0.563-4.564,0.258
				c-1.373-0.275-1.827-1.819-2.878-2.623c-0.433-0.331-1.213-0.094-1.443,0.379c-1.902,3.921,3.533,5.665,6.483,5.62
				c4.254-0.064,9.77-2.373,10.929-6.768c3.073-11.651-11.91-12.827-19.646-11.663c0.563,0.733,1.127,1.466,1.69,2.198
				c1.456-2.604,2.775-5.262,3.916-8.02c1.429-3.458,1.611-5.185,5.385-6.097c4.619-1.115,8.894-2.845,11.021-7.366
				C27.938,311.538,26.947,310.964,26.46,311.645L26.46,311.645z"/>
		</g>
	</g>
	<g>
		<g>
			<path fill="#1C758A" d="M42.82,309.903c-0.3-0.316-0.576-0.643-0.845-0.985c-0.268-0.34-0.701-0.012-0.743,0.308
				c-0.23,1.757-0.335,3.406-0.918,5.1c-0.542,1.572-1.462,3.018-2.358,4.407c-0.785,1.216,1.142,2.323,1.93,1.127
				c1.927-2.927,4.181-7.447,2.157-10.854c-0.228,0.176-0.456,0.352-0.683,0.527c0.343,0.269,0.669,0.545,0.986,0.845
				C42.66,310.677,43.119,310.218,42.82,309.903L42.82,309.903z"/>
		</g>
	</g>
	<g>
		<g>
			<path fill="#1C758A" d="M158.403,143.941c-0.373,0.062-0.065-0.803-0.675-0.412c-0.6,0.384-1.197,0.77-1.802,1.146
				c-1.962,1.223-3.901,2.467-5.913,3.61c-0.973,0.552-3.165,1.03-3.746,2.021c-1.641,2.801-2.048,6.233-3.794,9.077
				c-0.537,0.873,0.151,2.109,1.189,2.073c2.837-0.099,5.595-0.669,8.409-1.012c5.552-0.675,7.592,4.954,5.69,9.411
				c-2.409,5.647-10.377,2.767-13.381-0.425c-0.668-0.709-1.639-0.097-1.734,0.718c-0.847,7.261,13.989,7.316,16.998,2.409
				c2.245-3.661,2.848-8.977-0.354-12.393c-4.339-4.628-10.134-1.799-15.628-1.463c0.396,0.691,0.793,1.382,1.189,2.073
				c1.515-2.621,2.432-5.392,3.292-8.287c0.366-1.231,2.604-1.987,3.847-2.756c2.273-1.407,6.346-3.303,7.126-6.068
				c0.054-0.193-0.064-0.435-0.271-0.477c-0.266-0.054-0.352-0.017-0.63,0.077C157.78,143.409,157.961,144.014,158.403,143.941
				L158.403,143.941z"/>
		</g>
	</g>
	<g>
		<g>
			<path fill="#1C758A" d="M169.667,137.344c0.653,1.75,1.092,3.529,1.09,5.408c-0.001,2.242-1.56,3.308-2.18,5.23
				c-0.136,0.421,0.241,0.997,0.716,0.939c2.124-0.257,3.291-2.551,3.51-4.526c0.301-2.721-0.73-5.194-2.108-7.485
				C170.377,136.38,169.438,136.73,169.667,137.344L169.667,137.344z"/>
		</g>
	</g>
	<linearGradient id="SVGID_3_" gradientUnits="userSpaceOnUse" x1="542.4619" y1="360.5508" x2="720.248" y2="360.5508">
		<stop  offset="0" style="stop-color:#29ABCA"/>
		<stop  offset="0.1261" style="stop-color:#2EABC8"/>
		<stop  offset="0.2681" style="stop-color:#3BABC0"/>
		<stop  offset="0.4177" style="stop-color:#52ABB4"/>
		<stop  offset="0.5727" style="stop-color:#71ABA3"/>
		<stop  offset="0.732" style="stop-color:#9AAC8D"/>
		<stop  offset="0.8923" style="stop-color:#CBAC73"/>
		<stop  offset="1" style="stop-color:#F0AC5F"/>
	</linearGradient>
	<path fill="url(#SVGID_3_)" d="M709.569,319.801c0.046,0.001,0.091,0.007,0.137,0.007c5.823,0,10.542-4.722,10.542-10.546
		s-4.719-10.546-10.542-10.546c-0.889,0-1.746,0.124-2.57,0.331c0.022-0.252,0.036-0.506,0.036-0.764
		c0-0.755-0.104-1.482-0.286-2.175c0,0.001,0.005,0.012,0.005,0.012c0.452-8.867-8.592-11.992-9.607-12.806
		c-1.017-0.814-0.113-2.347-0.113-2.347c4.74-8.804-4.063-11.489-4.063-11.489c-0.451-3.136-2.935-3.862-2.935-3.862
		c-1.016,10.159-9.256,7.676-9.256,7.676c-3.611,5.757-9.195,2.928-10.549,3.111c-1.355,0.186-7.089,2.124-7.089,2.124
		c0.339,2.595-2.114,5.517-2.114,5.517c13.206,10.749,4.176,20.739,4.176,20.739h1.951c-0.143,0.64-0.224,1.302-0.224,1.984
		c0,0.416,0.038,0.822,0.092,1.224c-3.991,0.465-7.085,3.85-7.085,7.963c0,3.285,1.973,6.104,4.798,7.347
		c-0.685,0.869-1.16,1.9-1.401,3.021c-1.007-0.457-2.118-0.716-3.289-0.716c-4.51,0-8.169,3.775-8.169,8.432
		c0,1.092,0.208,2.131,0.573,3.088c-0.807,0.71-1.326,1.738-1.326,2.896c0,0.767,0.229,1.477,0.613,2.078
		c-0.035,0.007-0.073,0.01-0.108,0.018c-1.194-0.649-2.554-1.021-4-1.021c-4.517,0-8.207,3.594-8.528,8.145l-0.449,0.127
		c-1.256-0.887-2.774-1.407-4.414-1.407c-4.012,0-7.312,3.108-7.748,7.105c-1.727,1.137-2.869,3.091-2.869,5.313
		c0,1.319,0.402,2.545,1.09,3.561c-0.234,0.137-0.461,0.286-0.68,0.445c-0.065-0.001-0.13-0.01-0.196-0.01
		c-2.056,0-3.925,0.779-5.345,2.051c-0.729-0.244-1.508-0.385-2.318-0.402c-1.856-0.041-3.572,0.569-4.938,1.618
		c-0.159-0.014-0.317-0.031-0.479-0.035c-1.19-0.025-2.319,0.224-3.341,0.677c-1.378-0.742-2.954-1.165-4.63-1.165
		c-4.867,0-8.89,3.558-9.64,8.21c-2.31,1.32-3.896,3.777-3.957,6.631c-0.06,2.677,1.234,5.067,3.253,6.525l-1.163,1.899
		c-0.37-0.047-0.745-0.075-1.126-0.084c-4.301-0.094-8.062,2.349-9.88,5.954c-1.114-1.088-2.623-1.776-4.302-1.813
		c-3.509-0.078-6.42,2.709-6.496,6.22c0,0.021,0.002,0.04,0.002,0.06c-3.132,0.337-5.604,2.947-5.676,6.179
		c-0.043,2.065,0.905,3.916,2.403,5.11c-0.105,0.568-0.18,1.149-0.192,1.746c-0.003,0.146,0.01,0.287,0.013,0.432
		c-0.953,0.305-1.817,0.809-2.543,1.467c-4.644,1.019-8.171,5.097-8.279,10.061c-0.01,0.431,0.016,0.854,0.057,1.273
		c-1.416,0.339-2.488,1.586-2.521,3.11c0,0.007,0.002,0.013,0.002,0.02c-5.655,0.07-10.283,4.603-10.408,10.303
		c-0.127,5.824,4.492,10.647,10.311,10.774c2.034,0.044,3.939-0.5,5.571-1.462c1.708,3.34,5.148,5.66,9.16,5.748
		c5.363,0.116,9.865-3.793,10.644-8.96c0.668,0.232,1.381,0.368,2.125,0.385c2.647,0.058,4.98-1.381,6.195-3.541
		c3.536-0.243,6.368-3.147,6.446-6.763c0.007-0.292-0.011-0.578-0.04-0.861c2.034-1.17,3.429-3.338,3.484-5.856
		c0.001-0.052-0.005-0.103-0.005-0.154c5.411-0.003,9.928-3.995,10.685-9.247c2.407-0.318,4.402-1.982,5.175-4.23
		c1.597-0.318,2.98-1.232,3.905-2.509c4.181-1.326,7.257-5.185,7.358-9.814c0.041-1.838-0.395-3.575-1.188-5.099
		c0.209-0.014,0.422-0.015,0.628-0.038c0.9,1.008,2.195,1.654,3.653,1.654c1.191,0,2.269-0.44,3.12-1.146
		c2.019,2.092,4.846,3.397,7.98,3.397c6.132,0,11.104-4.97,11.104-11.103c0-1.082-0.162-2.124-0.451-3.113
		c0.156,0.023,0.313,0.048,0.476,0.048c1.414,0,2.602-0.909,3.03-2.163c0.062,0.003,0.119,0.019,0.182,0.019
		c2.444,0,4.481-1.622,5.132-3.828c0.558,0.292,1.182,0.473,1.854,0.473c2.231,0,4.037-1.807,4.037-4.033
		c0-0.05-0.013-0.097-0.015-0.146c1.063-1.042,1.723-2.491,1.723-4.097c0-0.486-0.067-0.956-0.181-1.407
		c0.776,0.305,1.619,0.476,2.504,0.476c1.164,0,2.26-0.292,3.221-0.803c1.832,1.901,4.397,3.089,7.242,3.089
		c5.564,0,10.076-4.51,10.076-10.071c0-3.441-1.729-6.477-4.363-8.293c0.242-0.546,0.383-1.146,0.383-1.78
		c0-0.445-0.086-0.866-0.209-1.271c0.128,0.02,0.256,0.039,0.39,0.039c1.265,0,2.314-0.892,2.563-2.077
		c2.786-0.426,5.062-2.387,5.93-4.998c1.783,1.958,4.345,3.194,7.201,3.194c3.675,0,6.872-2.036,8.535-5.039
		c3.722-1.629,6.324-5.34,6.324-9.663c0-4.963-3.433-9.115-8.051-10.237l-1.079-1.656
		C707.399,323.723,709.094,321.992,709.569,319.801z M653.205,375.92c0.047-0.077,0.097-0.151,0.14-0.23
		c0.017,0.097,0.03,0.194,0.051,0.289C653.331,375.961,653.271,375.935,653.205,375.92z M654.071,371.829
		c-0.017-0.136-0.036-0.271-0.062-0.404c0.074,0.046,0.148,0.093,0.225,0.137C654.177,371.647,654.125,371.739,654.071,371.829z
		 M689.053,316.188l0.178-0.042l0.104,0.114C689.241,316.234,689.147,316.212,689.053,316.188z"/>
	<g>
		<path fill="#1C758A" d="M657.381,309.87c-2.408,0-4.563,1.066-6.034,2.748c-0.752,0.368-1.462,0.811-2.109,1.328
			c-0.316-0.179-0.649-0.329-0.982-0.479c-1.437-2.165-3.894-3.594-6.688-3.594c-1.901,0-3.645,0.664-5.02,1.77
			c-1.133-0.612-2.43-0.96-3.808-0.96c-4.428,0-8.021,3.593-8.021,8.023c0,0.103,0.012,0.202,0.016,0.305
			c-0.772,1.265-1.257,2.725-1.357,4.291c-1.443-2.763-4.331-4.652-7.667-4.652c-2.384,0-4.542,0.965-6.106,2.525
			c-0.099-0.003-0.195-0.015-0.294-0.015c-4.426,0-8.021,3.591-8.021,8.023c0,4.43,3.595,8.024,8.021,8.024
			c1.713,0,3.296-0.54,4.6-1.453c0.581,0.123,1.183,0.19,1.801,0.19c4.52,0,8.222-3.465,8.609-7.883
			c1.535,3.115,4.733,5.264,8.442,5.264c0.921,0,1.809-0.139,2.65-0.385c2.106,1.936,4.906,3.127,7.99,3.127
			c3.048,0,5.816-1.16,7.913-3.051c1.514,0.746,3.211,1.176,5.012,1.176c6.283,0,11.369-5.091,11.369-11.368
			c0-2.771-0.993-5.309-2.64-7.281C664.053,312.26,660.998,309.87,657.381,309.87z"/>
		<path fill="#1C758A" d="M630.113,310.181c2.273,0,4.359-0.782,6.02-2.082c1.307,0.923,2.897,1.47,4.619,1.47
			c1.381,0,2.679-0.349,3.813-0.963c1.226,0.759,2.665,1.204,4.212,1.204c3.307,0,6.142-1.999,7.371-4.853
			c0.648,0.304,1.365,0.486,2.129,0.486c0.253,0,0.496-0.038,0.739-0.074c0.445,0.061,0.896,0.103,1.358,0.103
			c5.53,0,10.009-4.485,10.009-10.014c0-5.529-4.479-10.011-10.009-10.011c-1.369,0-2.673,0.276-3.861,0.772
			c-0.435-3.091-3.083-5.471-6.294-5.471c-3.51,0-6.359,2.848-6.359,6.361c0,3.513,2.85,6.359,6.359,6.359
			c0.115,0,0.228-0.011,0.341-0.018c-0.032,0.163-0.05,0.331-0.075,0.497c-0.551-0.12-1.121-0.187-1.708-0.187
			c-1.38,0-2.678,0.349-3.812,0.962c-1.225-0.759-2.665-1.204-4.213-1.204c-1.108,0-2.163,0.225-3.124,0.631
			c-1.793-2.153-4.492-3.524-7.515-3.524c-5.399,0-9.776,4.377-9.776,9.776C620.337,305.805,624.714,310.181,630.113,310.181z"/>
		<path fill="#1C758A" d="M651.844,334.444c-3.156,0-5.881,1.829-7.189,4.481c-1.424-1.024-3.167-1.635-5.057-1.635
			c-1.869,0-3.595,0.596-5.011,1.6c-0.588-0.138-1.198-0.218-1.829-0.218c-2.239,0-4.263,0.921-5.718,2.401
			c-1.475-0.774-3.151-1.218-4.933-1.218c-4.345,0-8.074,2.606-9.727,6.337c-1.748-2.653-4.751-4.408-8.168-4.408
			c-4.29,0-7.925,2.768-9.241,6.61c-0.177-0.012-0.354-0.027-0.533-0.027c-4.432,0-8.024,3.592-8.024,8.021
			c0,4.433,3.593,8.025,8.024,8.025c2.432,0,4.604-1.085,6.075-2.792c1.453,1.462,3.464,2.367,5.687,2.367
			c2.391,0,4.528-1.05,5.998-2.706c1.47,1.656,3.608,2.706,5.997,2.706c2.602,0,4.905-1.242,6.371-3.159
			c3.302-0.783,6.011-3.097,7.32-6.159c0.287,0.03,0.576,0.049,0.871,0.049c1.23,0,2.392-0.285,3.434-0.78
			c1.046,0.446,2.197,0.695,3.406,0.695c3.618,0,6.714-2.215,8.015-5.361c1.229,0.767,2.677,1.217,4.231,1.217
			c4.434,0,8.025-3.593,8.025-8.025C659.869,338.036,656.277,334.444,651.844,334.444z"/>
		<path fill="#1C758A" d="M611.252,364.609c-3.439,0-6.365,2.167-7.507,5.206c-2.181,0.557-3.804,2.517-3.804,4.871
			c0,2.787,2.263,5.047,5.048,5.047c0.672,0,1.31-0.137,1.896-0.375c1.258,0.818,2.755,1.298,4.367,1.298
			c4.432,0,8.022-3.593,8.022-8.024C619.274,368.202,615.684,364.609,611.252,364.609z"/>
	</g>
	<linearGradient id="SVGID_4_" gradientUnits="userSpaceOnUse" x1="720.4883" y1="281.1045" x2="541.3154" y2="281.1045">
		<stop  offset="0" style="stop-color:#29ABCA"/>
		<stop  offset="0.1077" style="stop-color:#4EABB6"/>
		<stop  offset="0.268" style="stop-color:#7FAB9C"/>
		<stop  offset="0.4273" style="stop-color:#A8AC86"/>
		<stop  offset="0.5823" style="stop-color:#C7AC75"/>
		<stop  offset="0.7319" style="stop-color:#DEAC69"/>
		<stop  offset="0.8739" style="stop-color:#EBAC61"/>
		<stop  offset="1" style="stop-color:#F0AC5F"/>
	</linearGradient>
	<path fill="url(#SVGID_4_)" d="M720.488,206.671c0-5.661-4.594-10.249-10.257-10.249c-0.493,0-0.975,0.047-1.449,0.115
		c-1.668-3.155-4.98-5.307-8.798-5.307c-0.627,0-1.238,0.065-1.833,0.176c-0.602-1.334-1.707-2.388-3.075-2.925
		c1.736-0.957,2.918-2.797,2.918-4.92c0-0.692-0.131-1.353-0.359-1.965c1.253-1.734,1.999-3.858,1.999-6.162
		c0-5.825-4.719-10.546-10.542-10.546c-3.749,0-7.035,1.966-8.905,4.918c-0.006,0-0.013-0.001-0.019-0.001
		c-3.109,0-5.626,2.52-5.626,5.629c0,0.497,0.07,0.975,0.191,1.434c-1.502,1.429-3.28,3.646-2.116,5.337
		c0,0,10.443-2.266,9.767,9.026c0,0,6.022,1.912,3.367,9.034l0.026,1.125c-0.798-0.257-1.325-0.263-0.976,0.681
		c0.842,2.255-1.697,5.312-1.702,5.317c-0.878-0.458-1.873-0.72-2.932-0.72c-3.513,0-6.36,2.849-6.36,6.362
		c0,2.879,1.914,5.309,4.538,6.093c-2.489,1.436-4.378,3.787-5.228,6.589c-0.636-0.212-1.313-0.333-2.02-0.333
		c-3.509,0-6.36,2.848-6.36,6.36c0,0.081,0.009,0.159,0.012,0.239c-1.977,0.551-3.563,2.032-4.262,3.945
		c-3.193,0.335-5.688,3.04-5.688,6.326c0,1.857,0.802,3.524,2.071,4.687c-0.353,0.048-0.699,0.112-1.041,0.193
		c-1.894-1.636-4.355-2.632-7.055-2.632c-5.972,0-10.811,4.842-10.811,10.814c0,0.885,0.118,1.74,0.318,2.563
		c-0.579-0.149-1.183-0.237-1.809-0.237c-3.395,0-6.237,2.353-7.004,5.515c-0.052-0.001-0.102-0.008-0.153-0.008
		c-3.98,0-7.215,3.23-7.215,7.215c0,2.132,0.931,4.041,2.4,5.361c-1.543-0.849-3.314-1.333-5.201-1.333
		c-1.299,0-2.539,0.241-3.693,0.661c-2.138-2.438-5.27-3.986-8.768-3.986c-6.424,0-11.643,5.216-11.643,11.652
		c0,1.904,0.467,3.696,1.277,5.283c-2.687,1.09-4.585,3.723-4.585,6.804c0,0.223,0.014,0.442,0.033,0.661
		c-0.013,0-0.023-0.004-0.036-0.004c-2.726,0-4.936,2.21-4.936,4.938c0,0.431,0.072,0.84,0.176,1.237
		c-0.64,0.019-1.266,0.089-1.871,0.219c-1.06-0.836-2.255-1.503-3.546-1.974c-1.967-2.138-4.778-3.486-7.911-3.486
		c-5.931,0-10.744,4.813-10.744,10.751c0,1.989,0.55,3.847,1.492,5.444c0.167,3.169,1.478,6.03,3.536,8.178
		c-0.254-0.026-0.511-0.041-0.771-0.041c-2.187,0-4.146,0.964-5.491,2.486c-0.461-0.111-0.94-0.176-1.436-0.176
		c-2.522,0-4.689,1.524-5.635,3.701c-0.852-0.216-1.738-0.343-2.656-0.343c-5.953,0-10.78,4.829-10.78,10.783
		c0,5.956,4.827,10.783,10.78,10.783c0.565,0,1.115-0.057,1.657-0.141l0.361,0.67c-0.628,1.289-0.99,2.731-0.99,4.262
		c0,1.288,0.256,2.514,0.709,3.639l-0.005,0.002c0,0-9.977,13.015,4.771,18.364c0,0-0.752,6.527,5.568,8.271
		c0,0,1.054,0.391,1.504,1.293c0.452,0.903,2.918,5.261,9.21,4.211c0,0,0.934-0.9,0,1.356c-0.933,2.258-2.943,4.516-1.938,6.321
		c0,0,4.404,1.37,8.316,1.068c0,0,4.312-5.71,10.632-3.603c0,0,2.225-5.383,0.87-6.257c-1.354-0.871-5.324-7.024,2.803-10.976
		c0,0-0.544-7.097,3.67-8.715l-3.67-2.797c0-0.682-0.071-1.346-0.204-1.988l0.204-0.038l-2.803-7.729v-3.183
		c0.53-0.613,0.923-1.347,1.138-2.154c5.885-1.211,10.315-6.418,10.315-12.661c0-1.467-0.256-2.871-0.707-4.187
		c2.267-0.828,3.889-2.998,3.889-5.552c0-0.684-0.122-1.337-0.335-1.947c1.048,0.541,2.233,0.852,3.493,0.852
		c3.34,0,6.175-2.148,7.211-5.138c0.141,0.008,0.28,0.021,0.423,0.021c4.056,0,7.347-3.285,7.347-7.338
		c0-1.925-0.747-3.672-1.96-4.98c1.346-0.883,2.238-2.398,2.238-4.127c0-0.521-0.103-1.014-0.253-1.485
		c2.127,2.055,5.017,3.325,8.209,3.325c5.237,0,9.672-3.41,11.224-8.13c1.412,1.19,3.232,1.91,5.222,1.91
		c4.487,0,8.122-3.634,8.122-8.118c0-3.851-2.683-7.067-6.281-7.902l0.404-0.319c0.837,0.292,1.732,0.458,2.668,0.458
		c1.377,0,2.672-0.345,3.808-0.949c3.159-0.233,5.82-2.254,6.942-5.074c0.191,0.018,0.384,0.029,0.579,0.029
		c1.426,0,2.737-0.475,3.798-1.267c1.215,1.092,2.815,1.762,4.574,1.762c2.973,0,5.497-1.894,6.449-4.538
		c0.582,0.148,1.188,0.236,1.816,0.236c4.053,0,7.343-3.285,7.343-7.338c0-2.791-1.564-5.21-3.859-6.449
		c0.265-0.444,0.427-0.957,0.427-1.511c0-0.451-0.108-0.874-0.289-1.257c0.374,0.04,0.749,0.074,1.134,0.074
		c4.826,0,8.945-2.993,10.62-7.218c0.228,0.032,0.452,0.069,0.688,0.069c2.729,0,4.942-2.21,4.942-4.938
		c0-0.606-0.124-1.179-0.324-1.716c5.137-1.116,8.991-5.681,8.991-11.146c0-3.441-1.531-6.519-3.941-8.612
		c1.471-0.864,2.469-2.444,2.469-4.271c0-1.372-0.556-2.614-1.454-3.513c0.131,0.005,0.259,0.02,0.391,0.02
		C715.895,216.915,720.488,212.329,720.488,206.671z M587.839,322.173c0,0.002-0.001,0.004-0.002,0.006
		c-0.001-0.002-0.001-0.004-0.002-0.006C587.836,322.173,587.838,322.173,587.839,322.173z M604.325,303.115
		c-0.371-0.148-0.754-0.272-1.146-0.378c0.026-0.239,0.043-0.481,0.043-0.729c0-0.342-0.034-0.675-0.085-1.002
		c0.591-0.372,1.123-0.824,1.584-1.344c-0.271,0.923-0.424,1.897-0.424,2.908C604.298,302.755,604.315,302.934,604.325,303.115z
		 M606.41,296.346c0.106-0.498,0.166-1.014,0.166-1.544c0-0.153-0.014-0.304-0.023-0.455c0.098,0.003,0.191,0.015,0.289,0.015
		c0.601,0,1.186-0.06,1.762-0.146C607.77,294.813,607.031,295.531,606.41,296.346z M677.892,262.236
		c0.078-0.29,0.147-0.583,0.201-0.882l0.558,0.199C678.38,261.761,678.131,261.994,677.892,262.236z"/>
	<g>
		<path fill="#1C758A" d="M689.861,196.421c0-4.168-3.179-7.592-7.245-7.984c0.005-0.112,0.017-0.223,0.017-0.336
			c0-3.582-2.903-6.485-6.488-6.485c-2.891,0-5.341,1.894-6.178,4.508c-0.025,0.003-0.05,0.008-0.075,0.011
			c-1.395-1.168-3.19-1.874-5.153-1.874c-1.776,0-3.413,0.586-4.743,1.566c-1.467-1.607-3.571-2.622-5.921-2.622
			c-1.49,0-2.882,0.415-4.078,1.124c-0.401-0.047-0.808-0.079-1.222-0.079c-2.831,0-5.394,1.14-7.261,2.982
			c-1.04-0.75-2.313-1.197-3.695-1.197c-0.246,0-0.488,0.018-0.727,0.045c-1.831-3.384-5.411-5.683-9.532-5.683
			c-0.782,0-1.543,0.087-2.278,0.245c-1.296-0.897-2.867-1.426-4.564-1.426c-1.725,0-3.319,0.55-4.628,1.479
			c-1.31-0.928-2.905-1.479-4.634-1.479c-0.966,0-1.888,0.18-2.746,0.493c-1.495-0.802-3.203-1.259-5.02-1.259
			c-0.48,0-0.949,0.043-1.412,0.104c-0.358-0.198-0.726-0.38-1.105-0.541c1.234-0.721,2.139-1.935,2.417-3.386
			c0.673-0.312,1.294-0.711,1.85-1.188c0.42,0.089,0.849,0.149,1.285,0.187c1.417,2.27,3.93,3.785,6.801,3.785
			c2.758,0,5.188-1.391,6.632-3.508c1.4,2.347,3.956,3.924,6.885,3.924c1.78,0,3.42-0.587,4.751-1.568
			c1.326,2.603,4.024,4.388,7.144,4.388c1.971,0,3.772-0.712,5.169-1.891c1.328-0.342,2.521-1.011,3.489-1.922
			c1.781,1.416,4.031,2.268,6.483,2.268c0.208,0,0.411-0.019,0.616-0.031c1.771,1.121,3.861,1.779,6.11,1.779
			c4.085,0,7.658-2.14,9.688-5.353c0.412,0.109,0.837,0.186,1.283,0.186c2.79,0,5.048-2.26,5.048-5.046
			c0-2.787-2.258-5.045-5.048-5.045c-0.055,0-0.104,0.014-0.158,0.016c-1.563-4.47-5.805-7.683-10.813-7.683
			c-1.381,0-2.698,0.257-3.925,0.705c-0.825-0.229-1.689-0.362-2.584-0.381c-0.607-0.625-1.315-1.148-2.099-1.549
			c12.854-0.258,18.522,5.186,18.522,5.186c-0.757-3.612-4.262-5.116-4.262-5.116c4.018-9.332-1.906-15.351-1.713-12.34
			c0.051,0.789-0.493,1.639-1.313,2.465c0.827-1.262,1.313-2.769,1.313-4.391c0-4.331-3.432-7.848-7.726-8.008
			c-1.921-1.742-4.462-2.812-7.261-2.812c-0.339,0-0.673,0.02-1.004,0.051c-1.643-1.1-3.617-1.742-5.743-1.742
			c-2.179,0-4.196,0.677-5.862,1.828c-1.479,0.256-2.827,0.881-3.945,1.786c-0.986-0.432-2.073-0.676-3.219-0.676
			c-1.361,0-2.643,0.342-3.766,0.941c-0.179-0.019-0.354-0.054-0.537-0.054c-2.783,0-5.046,2.259-5.046,5.046
			c0,0.22,0.037,0.429,0.064,0.641c-3.556,0.822-6.212,4.003-6.212,7.811c0,1.987,0.727,3.802,1.924,5.204
			c-1.531,0.044-2.979,0.409-4.284,1.03c-1.363-0.642-2.88-1.01-4.487-1.01c-4.666,0-8.619,3.03-10.017,7.228
			c-3.158,1.079-5.432,4.063-5.432,7.587c0,1.826,0.617,3.504,1.645,4.853c-0.143,0.467-0.242,0.953-0.242,1.466
			c0,1.356,0.542,2.581,1.412,3.488c-3.839,0.469-7.114,2.746-8.956,5.958c-0.287-0.044-0.58-0.075-0.88-0.075
			c-3.125,0-5.663,2.534-5.663,5.661c0,3.127,2.538,5.665,5.663,5.665c0.171,0,0.339-0.011,0.506-0.025
			c1.951,4.005,6.048,6.772,10.799,6.772c2.104,0,4.081-0.543,5.802-1.493c0.463,0.062,0.932,0.104,1.412,0.104
			c0.37,0,0.734-0.019,1.095-0.056c1.439,2.152,3.891,3.57,6.671,3.57c1.59,0,3.066-0.468,4.313-1.264
			c1.461,1.519,3.508,2.468,5.778,2.468c2.241,0,4.266-0.919,5.721-2.399c0.099,0.002,0.194,0.015,0.293,0.015
			c3.266,0,6.184-1.45,8.169-3.732c0.655,0.23,1.356,0.361,2.09,0.361c0.482,0,0.949-0.059,1.4-0.161
			c1.549,3.755,5.241,6.397,9.556,6.397c0.563,0,1.112-0.057,1.651-0.144c1.471,1.809,3.712,2.966,6.224,2.966
			c2.298,0,4.363-0.971,5.825-2.519c0.254,0.04,0.509,0.078,0.773,0.078c0.281,0,0.553-0.039,0.821-0.083
			c1.929,1.697,4.452,2.734,7.222,2.734c1.729,0,3.358-0.411,4.813-1.124c0.914,1.283,2.405,2.126,4.099,2.126
			c2.792,0,5.05-2.26,5.05-5.046c0-0.079-0.02-0.153-0.023-0.231C687.963,202.407,689.861,199.639,689.861,196.421z M642.67,156.976
			c1.547-0.108,2.97-0.654,4.151-1.516c0.184,0.16,0.371,0.316,0.577,0.449c-1.501,0.215-2.869,0.837-3.981,1.763
			C643.179,157.427,642.931,157.195,642.67,156.976z M627.912,153.239c0.878,0.33,1.825,0.52,2.819,0.52
			c1.543,0,2.978-0.443,4.2-1.197c0.371,0.74,0.849,1.416,1.419,2.004c-0.11-0.003-0.22-0.017-0.331-0.017
			c-1.354,0-2.644,0.268-3.828,0.741c-1.506-0.869-3.247-1.375-5.109-1.383C627.375,153.704,627.649,153.479,627.912,153.239z
			 M656.58,151.354l-1.503,1.281c0.047-0.246,0.065-0.5,0.076-0.757c0.671-0.387,1.294-0.846,1.864-1.363
			c0.55-0.021,1.086-0.095,1.603-0.221C657.451,150.944,656.58,151.354,656.58,151.354z"/>
		<path fill="#1C758A" d="M620.717,260.267c-2.242,0-4.301,0.763-5.949,2.032c-0.662-0.177-1.354-0.279-2.071-0.279
			c-3.455,0-6.392,2.188-7.521,5.252c-0.474-0.147-0.967-0.249-1.489-0.249c-2.788,0-5.047,2.259-5.047,5.045
			c0,2.788,2.259,5.047,5.047,5.047c1.316,0,2.505-0.516,3.402-1.341c1.447,1.416,3.425,2.292,5.608,2.292
			c0.298,0,0.591-0.019,0.881-0.051c0.669,0.226,1.378,0.361,2.112,0.401c1.471,0.885,3.187,1.403,5.027,1.403
			c5.404,0,9.779-4.375,9.779-9.778C630.496,264.644,626.121,260.267,620.717,260.267z"/>
		<path fill="#1C758A" d="M675.283,216.26c-1.084-3.519-4.359-6.078-8.234-6.078c-2.009,0-3.853,0.694-5.317,1.847
			c-1.541-0.807-3.292-1.27-5.153-1.27c-0.703,0-1.388,0.073-2.055,0.198c-1.701-0.955-3.66-1.505-5.751-1.505
			c-2.534,0-4.875,0.81-6.795,2.173c-1.307-0.796-2.795-1.324-4.396-1.482c-1.455-2.03-3.829-3.357-6.519-3.357
			c-2.206,0-4.204,0.891-5.654,2.332c-1.528-0.891-3.301-1.411-5.198-1.411c-0.854,0-1.679,0.115-2.472,0.31
			c-1.47-1.852-3.735-3.042-6.284-3.042c-1.763,0-3.389,0.576-4.713,1.541c-0.155,0.021-0.311,0.043-0.465,0.071
			c-1.66-1.085-3.641-1.722-5.773-1.722c-0.156,0-0.308,0.017-0.462,0.023c-1.367-0.618-2.881-0.971-4.479-0.971
			c-3.297,0-6.245,1.471-8.241,3.786c-0.638-0.245-1.328-0.385-2.053-0.385c-3.149,0-5.708,2.555-5.708,5.708
			c0,3.155,2.559,5.712,5.708,5.712c0.049,0,0.097-0.006,0.146-0.007c1.576,4.074,5.521,6.969,10.148,6.969
			c0.622,0,1.229-0.064,1.822-0.165c0.986,0.304,2.033,0.469,3.119,0.469c0.811,0,1.596-0.1,2.354-0.272
			c1.543,0.909,3.334,1.44,5.254,1.44c1.908,0,3.69-0.524,5.227-1.422c1.827,1.631,4.229,2.631,6.873,2.631
			c2.756,0,5.253-1.084,7.106-2.84c1.771,3.274,5.236,5.5,9.221,5.5c1.598,0,3.105-0.368,4.46-1.007
			c2.074,1.833,4.791,2.954,7.774,2.954c1.393,0,2.723-0.254,3.962-0.698c1.2,0.443,2.491,0.698,3.844,0.698
			c4.141,0,7.742-2.265,9.655-5.617c0.269,0.025,0.54,0.041,0.815,0.041c1.925,0,3.696-0.639,5.131-1.706
			c0.684,0.346,1.445,0.56,2.264,0.56c2.79,0,5.048-2.26,5.048-5.047C679.491,218.721,677.671,216.662,675.283,216.26z"/>
		<path fill="#1C758A" d="M636.094,237.738c-1.297,0-2.536,0.239-3.689,0.657c-0.442-0.422-0.913-0.812-1.417-1.161
			c-1.233-2.843-4.063-4.834-7.363-4.834c-1.76,0-3.383,0.574-4.706,1.537c-0.539-0.092-1.089-0.15-1.654-0.15
			c-0.59,0-1.164,0.061-1.725,0.161c-1.735-1.303-3.885-2.085-6.224-2.085c-5.739,0-10.39,4.649-10.39,10.384
			c0,5.737,4.65,10.388,10.39,10.388c1.125,0,2.206-0.185,3.221-0.516c0.264,0.146,0.536,0.279,0.813,0.401
			c0.396,0.319,0.83,0.587,1.311,0.777c2.093,3.127,5.655,5.188,9.701,5.188c1.86,0,3.612-0.447,5.173-1.223
			c1.825,1.387,4.093,2.22,6.56,2.22c6.008,0,10.871-4.87,10.871-10.873S642.102,237.738,636.094,237.738z"/>
	</g>
	<linearGradient id="SVGID_5_" gradientUnits="userSpaceOnUse" x1="543.4287" y1="136.5625" x2="721.6631" y2="136.5625">
		<stop  offset="0" style="stop-color:#29ABCA"/>
		<stop  offset="0.0332" style="stop-color:#3FABBE"/>
		<stop  offset="0.1052" style="stop-color:#68ABA8"/>
		<stop  offset="0.1836" style="stop-color:#8DAB94"/>
		<stop  offset="0.2676" style="stop-color:#ACAC84"/>
		<stop  offset="0.359" style="stop-color:#C5AC76"/>
		<stop  offset="0.4606" style="stop-color:#D8AC6C"/>
		<stop  offset="0.5781" style="stop-color:#E6AC65"/>
		<stop  offset="0.7257" style="stop-color:#EEAC60"/>
		<stop  offset="1" style="stop-color:#F0AC5F"/>
	</linearGradient>
	<path fill="url(#SVGID_5_)" d="M710.887,58.986c0.046,0.001,0.09,0.007,0.135,0.008c5.827,0.055,10.588-4.623,10.642-10.448
		c0.053-5.823-4.62-10.588-10.45-10.644c-0.886-0.008-1.742,0.105-2.565,0.304c0.024-0.25,0.04-0.502,0.043-0.759
		c0.039-4.4-3.241-7.999-7.33-8.035c-1.072-0.01-2.091,0.231-3.015,0.664c-1.247-1.378-3.038-2.256-5.044-2.274
		c-1.245-0.012-2.413,0.313-3.427,0.881c-1.163-0.932-2.632-1.499-4.237-1.514c-3.81-0.036-6.924,3.022-6.957,6.832
		c-0.009,0.984,0.191,1.92,0.556,2.771c-0.535-0.105-1.086-0.169-1.65-0.175c-4.968-0.046-9.032,3.966-9.078,8.965
		c-0.016,1.683,0.436,3.257,1.219,4.614c-2.858,0.38-5.078,2.808-5.103,5.775c-0.021,2.083,1.047,3.918,2.669,4.98
		c-1.277,1.033-2.207,2.479-2.582,4.14c-0.997-0.46-2.099-0.725-3.261-0.735c-4.513-0.042-8.207,3.698-8.249,8.355
		c-0.016,1.642,0.433,3.174,1.208,4.477l-0.016,1.723l1.826,2.052c-0.617-0.189-1.269-0.298-1.945-0.304
		c-0.478-0.005-0.944,0.041-1.396,0.13c-1.188-0.661-2.546-1.044-3.991-1.058c-4.515-0.041-8.238,3.518-8.603,8.066l-0.451,0.123
		c-1.247-0.897-2.761-1.432-4.399-1.448c-4.009-0.036-7.339,3.04-7.813,7.032c-1.738,1.122-2.898,3.065-2.918,5.288
		c-0.012,1.325,0.382,2.558,1.065,3.583c-1.669,0.95-2.975,2.497-3.61,4.377c-1.401-2.119-3.803-3.517-6.535-3.517
		c-1.854,0-3.557,0.648-4.898,1.726c-0.159-0.009-0.316-0.024-0.478-0.024c-4.33,0-7.837,3.508-7.837,7.836
		c0,0.582,0.068,1.147,0.188,1.693c-1.433-1.56-3.483-2.544-5.769-2.544c-4.326,0-7.834,3.508-7.834,7.836
		c0,2.679,1.346,5.04,3.396,6.452l-1.122,1.926c-0.37-0.039-0.746-0.059-1.127-0.059c-4.302,0-8.009,2.524-9.747,6.168
		c-1.138-1.063-2.66-1.718-4.339-1.718c-3.511,0-6.359,2.848-6.359,6.361c0,0.019,0.003,0.038,0.003,0.057
		c-3.121,0.404-5.539,3.068-5.539,6.302c0,2.064,0.988,3.893,2.512,5.055c-0.094,0.571-0.154,1.152-0.154,1.749
		c0,0.146,0.017,0.288,0.021,0.433c-0.945,0.325-1.798,0.848-2.509,1.521c-4.618,1.12-8.057,5.274-8.057,10.239
		c0,0.432,0.034,0.854,0.084,1.272c-1.409,0.37-2.454,1.641-2.454,3.165c0,0.006,0.002,0.012,0.002,0.019
		c-5.65,0.194-10.178,4.828-10.178,10.528c0,5.825,4.722,10.546,10.542,10.546c0.028,0,0.056-0.004,0.084-0.004
		c-0.138,1.012,0.515,2.746,1.65,4.878c-3.69,1.641-6.27,5.335-6.27,9.635c0,4.072,2.311,7.599,5.688,9.356
		c1.743,3.422,5.291,5.771,9.392,5.771c2.666,0,5.094-0.998,6.95-2.63c0.427,0.527,0.679,0.834,0.679,0.834
		c0.902,4.842,6.213,4.279,6.213,4.279c-0.653,2.198,0.212,3.662,0.906,4.425c-3.137,1.828-5.252,5.22-5.252,9.111
		c0,5.824,4.724,10.546,10.544,10.546c3.16,0,5.987-1.397,7.92-3.599c0.704,0.687,1.664,1.113,2.725,1.113
		c2.161,0,3.911-1.753,3.911-3.914c0-0.473-0.097-0.921-0.251-1.341c3.4-8.289,11.274-9.205,9.635-9.205
		c-1.877,0.001-3.241-3.311-4.196-2.082c-0.956,1.231-6.583,0-6.583,0c-0.353,0.144-0.703,0.247-1.054,0.315
		c-5.658,1.124-10.974-6.676-10.974-6.676c-11.438-10.548,2.953-13.9,2.953-13.9c2.053-2.474,4.874-5.65,3.251-6.403
		c-1.622-0.751-7.336-3.842-7.336-3.842c-7.153-4.896-4.888-10.443-4.888-10.443c-0.469,0.645-0.93,1.224-1.388,1.774
		c0.482-0.998,0.813-2.081,0.96-3.224c0.672,0.217,1.387,0.337,2.13,0.337c2.648,0,4.949-1.488,6.116-3.674
		c3.528-0.32,6.298-3.286,6.298-6.903c0-0.292-0.023-0.577-0.059-0.859c2.008-1.214,3.355-3.413,3.355-5.932
		c0-0.053-0.007-0.104-0.008-0.155c5.411-0.123,9.838-4.212,10.481-9.477c2.398-0.373,4.356-2.079,5.079-4.344
		c1.588-0.353,2.952-1.297,3.849-2.593c4.152-1.418,7.145-5.342,7.145-9.973c0-1.32-0.254-2.578-0.696-3.742
		c0.194-0.01,0.39-0.017,0.581-0.037c0.892,1.016,2.181,1.674,3.64,1.688c1.19,0.011,2.272-0.42,3.13-1.117
		c1.999,2.11,4.813,3.443,7.947,3.472c6.132,0.056,11.149-4.867,11.203-11c0.019-1.94-0.478-3.759-1.34-5.354
		c0.617-0.108,1.169-0.391,1.61-0.794c0.854,0.597,1.889,0.958,3.016,0.968c2.444,0.023,4.498-1.581,5.169-3.78
		c0.555,0.296,1.178,0.483,1.85,0.489c2.231,0.021,4.052-1.769,4.071-3.996c0.001-0.05-0.012-0.096-0.013-0.145
		c1.071-1.032,1.745-2.476,1.758-4.081c0.005-0.487-0.059-0.958-0.168-1.411c0.775,0.313,1.619,0.495,2.506,0.503
		c1.163,0.01,2.261-0.271,3.227-0.772c1.814,1.917,4.368,3.127,7.212,3.153c5.563,0.051,10.12-4.416,10.171-9.978
		c0.032-3.441-1.67-6.493-4.288-8.334c0.247-0.542,0.393-1.141,0.398-1.775c0.003-0.445-0.079-0.868-0.198-1.274
		c0.13,0.021,0.26,0.042,0.396,0.043c1.259,0.012,2.321-0.87,2.581-2.055c2.788-0.4,5.078-2.344,5.97-4.943
		c1.766,1.974,4.316,3.234,7.173,3.26c3.678,0.034,6.895-1.972,8.584-4.96c3.737-1.594,6.375-5.28,6.414-9.602
		c0.046-4.965-3.349-9.149-7.959-10.313l-1.065-1.666C708.681,62.89,710.393,61.174,710.887,58.986z M559.155,188.386
		c0.12-0.068,0.236-0.142,0.354-0.215c0.356,0.661,0.785,1.275,1.269,1.841C560.07,189.344,559.525,188.749,559.155,188.386z
		 M690.584,55.144l0.103,0.116c-0.093-0.027-0.187-0.051-0.281-0.075L690.584,55.144z"/>
	<linearGradient id="SVGID_6_" gradientUnits="userSpaceOnUse" x1="264.3286" y1="215.8433" x2="329.957" y2="102.1715">
		<stop  offset="0" style="stop-color:#29ABCA"/>
		<stop  offset="0.0332" style="stop-color:#3FABBE"/>
		<stop  offset="0.1052" style="stop-color:#68ABA8"/>
		<stop  offset="0.1836" style="stop-color:#8DAB94"/>
		<stop  offset="0.2676" style="stop-color:#ACAC84"/>
		<stop  offset="0.359" style="stop-color:#C5AC76"/>
		<stop  offset="0.4606" style="stop-color:#D8AC6C"/>
		<stop  offset="0.5781" style="stop-color:#E6AC65"/>
		<stop  offset="0.7257" style="stop-color:#EEAC60"/>
		<stop  offset="1" style="stop-color:#F0AC5F"/>
	</linearGradient>
	<path fill="url(#SVGID_6_)" d="M341.376,122.67c0.026,0,0.05,0.004,0.076,0.004c3.226,0.03,5.862-2.56,5.893-5.785
		c0.029-3.225-2.56-5.863-5.785-5.893c-0.499-0.005-0.98,0.06-1.443,0.173c0.014-0.142,0.042-0.28,0.044-0.426
		c0.022-2.437-1.795-4.429-4.059-4.449c-0.596-0.005-1.16,0.133-1.673,0.375c-0.69-0.764-1.677-1.256-2.788-1.266
		c-0.693-0.006-1.336,0.187-1.899,0.504c-0.645-0.52-1.452-0.846-2.345-0.854c-2.108-0.02-3.833,1.674-3.853,3.782
		c-0.005,0.547,0.11,1.067,0.313,1.54c-0.298-0.06-0.604-0.099-0.919-0.102c-2.75-0.025-5.001,2.196-5.026,4.964
		c-0.009,0.938,0.256,1.809,0.696,2.564c-1.591,0.202-2.832,1.541-2.847,3.19c-0.011,1.16,0.591,2.177,1.498,2.764
		c-0.714,0.573-1.212,1.38-1.419,2.305c-0.561-0.265-1.18-0.421-1.837-0.427c-2.497-0.022-4.543,2.048-4.566,4.627
		c-0.008,0.904,0.245,1.743,0.669,2.462l-0.009,0.971l1.031,1.159c-0.35-0.109-0.712-0.188-1.096-0.191
		c-0.269-0.002-0.531,0.023-0.785,0.074c-0.653-0.366-1.399-0.579-2.199-0.586c-2.496-0.023-4.539,1.948-4.746,4.461l-0.269,0.073
		c-0.69-0.496-1.527-0.793-2.435-0.801c-2.215-0.021-4.037,1.681-4.306,3.885c-0.973,0.619-1.625,1.698-1.637,2.937
		c-0.007,0.737,0.215,1.422,0.597,1.991c-0.929,0.526-1.646,1.389-2,2.429c-0.775-1.179-2.106-1.96-3.623-1.96
		c-1.028,0-1.96,0.373-2.703,0.97c-0.093-0.006-0.181-0.028-0.275-0.028c-2.396,0-4.338,1.942-4.338,4.339
		c0,0.343,0.05,0.673,0.125,0.993c-0.789-0.893-1.928-1.465-3.216-1.465c-2.396,0-4.338,1.942-4.338,4.339
		c0,1.483,0.747,2.79,1.882,3.572l-0.623,1.067c-0.206-0.021-0.414-0.033-0.625-0.033c-2.384,0-4.438,1.4-5.4,3.42
		c-0.629-0.589-1.469-0.957-2.399-0.957c-1.944,0-3.521,1.577-3.521,3.522c0,0.015,0.004,0.029,0.004,0.044
		c-1.728,0.225-3.069,1.688-3.069,3.478c0,1.141,0.551,2.144,1.392,2.788c-0.053,0.319-0.087,0.646-0.087,0.98
		c0,0.085,0.009,0.168,0.013,0.252c-0.519,0.18-0.988,0.458-1.38,0.828c-2.563,0.617-4.471,2.918-4.471,5.672
		c0,0.239,0.019,0.473,0.046,0.704c-0.78,0.205-1.359,0.908-1.359,1.753c0,0.003,0.001,0.007,0.001,0.01
		c-3.129,0.107-5.637,2.672-5.637,5.83c0,3.225,2.615,5.839,5.838,5.839c0.015,0,0.03-0.002,0.045-0.002
		c-0.076,0.56,0.286,1.521,0.916,2.702c-2.043,0.909-3.471,2.954-3.471,5.335c0,2.255,1.28,4.207,3.149,5.18
		c0.965,1.895,2.929,3.196,5.2,3.196c1.477,0,2.82-0.552,3.849-1.456c0.236,0.292,0.376,0.463,0.376,0.463
		c0.5,2.68,3.439,2.369,3.439,2.369c-0.56,1.882,0.894,2.799,0.894,2.799l9.825,8.482c1.159-6.668,7.666-6.624,6.627-6.624
		s-2.452-2.54-2.981-1.858c-0.529,0.681-3.646,0-3.646,0c-0.194,0.078-0.389,0.136-0.583,0.174
		c-3.133,0.623-6.076-3.697-6.076-3.697c-6.334-5.841,1.636-7.695,1.636-7.695c1.136-1.371,2.698-3.13,1.8-3.547
		c-0.898-0.416-4.063-2.127-4.063-2.127c-3.961-2.711-2.706-5.783-2.706-5.783c-0.26,0.357-0.516,0.678-0.77,0.983
		c0.27-0.558,0.455-1.163,0.535-1.802c0.374,0.121,0.764,0.203,1.177,0.203c1.47,0,2.732-0.836,3.377-2.051
		c1.957-0.175,3.497-1.801,3.497-3.806c0-0.164-0.028-0.32-0.048-0.478c1.118-0.671,1.874-1.883,1.874-3.282
		c0-0.032-0.009-0.061-0.009-0.092c3.001-0.066,5.458-2.33,5.81-5.25c1.324-0.207,2.392-1.145,2.794-2.393
		c0.373-0.081,0.718-0.229,1.037-0.418c0.814,1.027,2.057,1.698,3.467,1.698c2.455,0,4.443-1.99,4.443-4.443
		c0-1.899-1.198-3.508-2.875-4.144c-0.038-0.603-0.147-1.186-0.353-1.727c1.084-0.056,2.095-0.39,2.96-0.938l4.495,1.227
		l2.366,0.117c0.658,0.249,1.366,0.394,2.11,0.401c3.396,0.031,6.174-2.694,6.205-6.091c0.006-0.625-0.092-1.224-0.261-1.793
		c0.708-0.361,1.246-0.99,1.48-1.757c0.307,0.165,0.652,0.268,1.025,0.271c1.234,0.011,2.242-0.98,2.254-2.213
		c0-0.029-0.007-0.055-0.008-0.083c0.593-0.571,0.966-1.369,0.975-2.257c0.002-0.272-0.04-0.532-0.102-0.784
		c0.431,0.176,0.9,0.276,1.395,0.281c0.412,0.004,0.801-0.075,1.174-0.192c0.59,0.39,1.256,0.674,1.973,0.821
		c0.782,0.431,1.679,0.681,2.633,0.689c3.081,0.028,5.604-2.445,5.632-5.525c0.018-1.906-0.925-3.595-2.375-4.614
		c0.136-0.301,0.217-0.632,0.22-0.983c0.002-0.247-0.043-0.48-0.109-0.706c0.071,0.012,0.143,0.023,0.218,0.024
		c0.703,0.007,1.292-0.486,1.433-1.147c1.543-0.224,2.8-1.297,3.292-2.74c0.978,1.101,2.395,1.804,3.983,1.819
		c2.036,0.019,3.817-1.093,4.753-2.748c2.069-0.883,3.529-2.924,3.55-5.317c0.026-2.749-1.854-5.065-4.406-5.71l-0.593-0.928
		C340.153,124.826,341.102,123.881,341.376,122.67z M257.36,194.322c0.066-0.038,0.131-0.079,0.196-0.119
		c0.198,0.366,0.436,0.707,0.704,1.021C257.867,194.853,257.564,194.523,257.36,194.322z M330.023,120.569l0.112-0.025l0.076,0.086
		C330.147,120.61,330.087,120.585,330.023,120.569z"/>
	<g>
		<linearGradient id="SVGID_7_" gradientUnits="userSpaceOnUse" x1="262.2866" y1="283.4854" x2="346.5615" y2="283.4854">
			<stop  offset="0" style="stop-color:#29ABCA"/>
			<stop  offset="0.1261" style="stop-color:#2EABC8"/>
			<stop  offset="0.2681" style="stop-color:#3BABC0"/>
			<stop  offset="0.4177" style="stop-color:#52ABB4"/>
			<stop  offset="0.5727" style="stop-color:#71ABA3"/>
			<stop  offset="0.732" style="stop-color:#9AAC8D"/>
			<stop  offset="0.8923" style="stop-color:#CBAC73"/>
			<stop  offset="1" style="stop-color:#F0AC5F"/>
		</linearGradient>
		<path fill="url(#SVGID_7_)" d="M340.646,267.089c0.026,0,0.051,0.004,0.077,0.004c3.226,0,5.839-2.613,5.839-5.838
			c0-3.227-2.613-5.84-5.839-5.84c-0.499,0-0.98,0.069-1.442,0.188c0.013-0.143,0.04-0.281,0.04-0.428
			c0-0.456-0.083-0.888-0.202-1.301c0.03,0.063,0.047,0.104,0.047,0.104c0.25-4.911-4.759-6.641-5.321-7.091s-0.063-1.3-0.063-1.3
			c2.625-4.875-2.25-6.361-2.25-6.361c-0.177-1.232-0.915-1.785-1.332-2.007c0.001-0.044,0.007-0.086,0.007-0.131
			c0-3.225-2.613-5.84-5.839-5.84c-0.564,0-1.107,0.084-1.623,0.234c-0.865-2.143-2.96-3.657-5.413-3.657
			c-3.223,0-5.838,2.615-5.838,5.84c0,3.227,2.615,5.84,5.838,5.84c0.564,0,1.108-0.084,1.624-0.233
			c0.737,1.827,2.37,3.191,4.354,3.556c-1.797,1.069-3.787,0.154-4.369,0.232c-0.75,0.103-3.925,1.176-3.925,1.176
			c0.188,1.438-1.172,3.055-1.172,3.055c7.313,5.954,2.313,11.485,2.313,11.485h1.086c-0.079,0.354-0.128,0.72-0.128,1.098
			s0.049,0.743,0.128,1.098c-2.379,0.086-4.285,2.027-4.285,4.426c0,1.817,1.094,3.375,2.657,4.063
			c-0.229,0.382-0.377,0.809-0.473,1.256c-0.563-0.26-1.184-0.411-1.842-0.411c-2.497,0-4.523,2.09-4.523,4.67
			c0,0.904,0.26,1.74,0.691,2.455v0.971l2.001,2.209l1.122,1.089c-0.01,0.058-0.01,0.117-0.019,0.176
			c-0.803-0.885-1.975-1.4-3.235-1.272c-0.267,0.027-0.524,0.081-0.77,0.159c-0.69-0.293-1.457-0.424-2.252-0.343
			c-2.483,0.252-4.298,2.437-4.227,4.956l-0.26,0.103c-0.741-0.417-1.605-0.62-2.507-0.529c-2.204,0.224-3.827,2.115-3.853,4.335
			c-0.899,0.722-1.429,1.866-1.304,3.099c0.074,0.733,0.37,1.39,0.812,1.913c-0.698,0.504-1.233,1.206-1.539,2.027
			c-0.689-0.282-1.453-0.406-2.244-0.294c-1.019,0.145-1.888,0.644-2.54,1.34c-0.093,0.008-0.183-0.002-0.276,0.012
			c-2.373,0.34-4.021,2.535-3.684,4.908c0.047,0.331,0.139,0.645,0.254,0.944c-0.91-0.759-2.115-1.156-3.379-0.976
			c-2.372,0.338-4.021,2.535-3.684,4.908c0.209,1.469,1.132,2.656,2.367,3.27l-0.466,1.146c-0.207,0.008-0.415,0.025-0.624,0.056
			c-2.36,0.336-4.196,2.011-4.863,4.146c-0.707-0.494-1.59-0.739-2.511-0.607c-1.925,0.273-3.264,2.059-2.989,3.984
			c0.002,0.015,0.008,0.028,0.011,0.043c-1.68,0.467-2.8,2.103-2.549,3.875c0.161,1.13,0.849,2.046,1.772,2.564
			c-0.007,0.323,0.005,0.65,0.052,0.98c0.012,0.085,0.033,0.166,0.048,0.25c-0.488,0.25-0.914,0.593-1.249,1.013
			c-2.451,0.971-4.016,3.521-3.627,6.245c0.034,0.237,0.085,0.467,0.146,0.692c-0.744,0.312-1.217,1.089-1.098,1.925
			c0.142,0.996,1.063,1.688,2.057,1.547c0.383-0.055,0.72-0.228,0.982-0.474c1.22,0.999,2.834,1.508,4.517,1.269
			c3.193-0.455,5.411-3.412,4.957-6.605c-0.037-0.262-0.097-0.514-0.167-0.761c0.067-0.008,0.134-0.009,0.202-0.019
			c0.789-0.112,1.518-0.377,2.167-0.754c0.4,0.537,0.941,0.945,1.566,1.185c-0.161,0.523-0.223,1.085-0.14,1.663
			c0.298,2.1,2.245,3.559,4.343,3.26s3.558-2.242,3.258-4.342c-0.004-0.029-0.016-0.055-0.021-0.084
			c2.962-0.488,5.074-3.082,5.01-6.023c1.282-0.391,2.207-1.472,2.429-2.765c0.85-0.314,1.529-0.94,1.922-1.725
			c2.167-1.101,3.501-3.486,3.14-6.026c-0.162-1.141-0.655-2.146-1.353-2.959c0.291-0.139,0.567-0.3,0.83-0.479
			c1.21,1.889,3.398,3.055,5.781,2.813c3.379-0.342,5.841-3.355,5.499-6.732c-0.091-0.896-0.373-1.723-0.796-2.454
			c0.307,0.169,0.667,0.252,1.044,0.214c0.779-0.079,1.382-0.646,1.548-1.361c0.034-0.002,0.067,0.004,0.101,0
			c1.346-0.135,2.379-1.143,2.615-2.395c0.324,0.13,0.678,0.194,1.048,0.156c1.229-0.123,2.122-1.219,1.998-2.445
			c-0.041-0.403-0.194-0.766-0.416-1.072c0.293-0.541,0.433-1.172,0.367-1.83c-0.02-0.197-0.063-0.386-0.116-0.57
			c0.627,0.318,1.347,0.473,2.099,0.396c0.174-0.018,0.336-0.063,0.501-0.103c0.811,0.461,1.745,0.729,2.743,0.739
			c0.299,0.003,0.591-0.024,0.878-0.066c0.566,0.126,1.16,0.169,1.769,0.107c3.065-0.311,5.301-3.047,4.99-6.111
			c-0.212-2.104-1.58-3.794-3.401-4.559c0.009-0.088,0.026-0.173,0.026-0.264c0-0.246-0.047-0.479-0.115-0.704
			c0.071,0.012,0.143,0.022,0.218,0.022c0.703,0,1.289-0.5,1.422-1.163c1.547-0.238,2.796-1.33,3.271-2.783
			c0.988,1.095,2.404,1.796,3.995,1.796c2.04,0,3.794-1.144,4.713-2.813c2.063-0.898,3.517-2.932,3.517-5.328
			c0-2.749-1.901-5.049-4.46-5.669l-0.601-0.923C339.442,269.257,340.383,268.303,340.646,267.089z M307.494,304.984
			c0.033-0.028,0.06-0.063,0.091-0.092c0.001,0.011-0.001,0.021,0,0.032c0.007,0.07,0.027,0.137,0.042,0.204
			C307.582,305.082,307.541,305.03,307.494,304.984z M314.54,294.822c0.064-0.084,0.127-0.167,0.184-0.256
			c0.035,0.131,0.079,0.255,0.127,0.38C314.748,294.903,314.648,294.854,314.54,294.822z M329.272,265.093l0.113-0.027l0.078,0.086
			C329.399,265.133,329.338,265.108,329.272,265.093z"/>
		<linearGradient id="SVGID_8_" gradientUnits="userSpaceOnUse" x1="265.5859" y1="220.3599" x2="277.2627" y2="220.3599">
			<stop  offset="0" style="stop-color:#29ABCA"/>
			<stop  offset="0.1261" style="stop-color:#2EABC8"/>
			<stop  offset="0.2681" style="stop-color:#3BABC0"/>
			<stop  offset="0.4177" style="stop-color:#52ABB4"/>
			<stop  offset="0.5727" style="stop-color:#71ABA3"/>
			<stop  offset="0.732" style="stop-color:#9AAC8D"/>
			<stop  offset="0.8923" style="stop-color:#CBAC73"/>
			<stop  offset="1" style="stop-color:#F0AC5F"/>
		</linearGradient>
		<circle fill="url(#SVGID_8_)" cx="271.424" cy="220.36" r="5.84"/>
	</g>
	<g>
		<circle fill="#1C758A" cx="297.676" cy="311.589" r="2.723"/>
		<path fill="#1C758A" d="M322.057,236.837c0.003-0.059,0.018-0.114,0.018-0.174c0-1.983-1.607-3.591-3.594-3.591
			c-1.424,0-2.645,0.836-3.226,2.039c-0.087-0.022-0.171-0.054-0.26-0.072c0.001-0.039,0.012-0.075,0.012-0.115
			c0-0.471-0.096-0.919-0.265-1.33c0.857-0.641,1.419-1.655,1.419-2.807c0-1.94-1.573-3.514-3.514-3.514
			c-0.228,0-0.448,0.026-0.664,0.067c0.09-0.274,0.151-0.562,0.151-0.867c0-1.092-0.633-2.029-1.547-2.488
			c-0.643-1.662-2.246-2.845-4.136-2.845c-1.521,0-2.863,0.767-3.663,1.935c-0.248-0.125-0.504-0.233-0.771-0.322
			c-0.892-0.523-1.928-0.829-3.038-0.829c-0.718,0-1.404,0.132-2.042,0.363c-0.246-0.235-0.508-0.452-0.789-0.646
			c-0.684-1.572-2.248-2.673-4.073-2.673c-0.973,0-1.865,0.322-2.596,0.852c-0.301-0.052-0.609-0.084-0.925-0.084
			c-0.056,0-0.11,0.007-0.166,0.008c-1.057-1.499-2.798-2.481-4.771-2.481c-2.376,0-4.418,1.424-5.329,3.463
			c-0.293-0.147-0.619-0.239-0.97-0.239c-1.196,0-2.166,0.97-2.166,2.167c0,1.195,0.97,2.166,2.166,2.166
			c0.242,0,0.47-0.049,0.687-0.122c0.157,0.552,0.392,1.07,0.694,1.542c0.442,1.324,1.352,2.431,2.534,3.129
			c0.725,1.225,2.044,2.056,3.569,2.056c0.642,0,1.242-0.157,1.785-0.417c0.833,2.207,2.959,3.779,5.457,3.779
			c0.852,0,1.658-0.187,2.388-0.514c0.044,0.734,0.412,1.376,0.969,1.787c-0.985,0.62-1.646,1.708-1.646,2.959
			c0,1.936,1.57,3.504,3.504,3.504c0.267,0,0.524-0.036,0.774-0.092c0.857,2.081,2.902,3.546,5.292,3.546
			c0.319,0,0.631-0.033,0.936-0.083c0.815,0.997,2.038,1.646,3.425,1.646c1.271,0,2.41-0.54,3.22-1.396
			c0.143,0.022,0.286,0.044,0.435,0.044c0.096,0,0.188-0.019,0.281-0.028c0.106,0.044,0.216,0.082,0.326,0.12
			c1.047,0.86,2.386,1.376,3.846,1.376c0.734,0,1.434-0.137,2.084-0.375c0.98,0.745,2.199,1.192,3.525,1.192
			c3.226,0,5.839-2.613,5.839-5.84C327.241,239.635,324.974,237.163,322.057,236.837z M299.302,236.187
			c-0.227-0.163-0.47-0.302-0.732-0.408c0.25-0.266,0.435-0.59,0.543-0.949c0.268,0.327,0.641,0.563,1.072,0.644
			C299.867,235.682,299.571,235.92,299.302,236.187z"/>
		<path fill="#1C758A" d="M277.546,215.169c0.546,0.168,1.126,0.26,1.728,0.26c0.449,0,0.884-0.055,1.304-0.151
			c0.854,0.503,1.846,0.797,2.908,0.797c1.057,0,2.043-0.29,2.894-0.787c1.012,0.903,2.342,1.457,3.806,1.457
			c1.526,0,2.909-0.601,3.935-1.573c0.981,1.813,2.9,3.046,5.106,3.046c3.205,0,5.8-2.598,5.8-5.801
			c0-3.011-2.292-5.485-5.229-5.772c-0.806-1.122-2.114-1.859-3.602-1.859c-1.222,0-2.328,0.494-3.131,1.292
			c-0.846-0.494-1.828-0.782-2.879-0.782c-0.479,0-0.942,0.065-1.387,0.176c-0.814-1.021-2.054-1.688-3.462-1.688
			c-0.971,0-1.863,0.321-2.594,0.85c-0.091,0.012-0.182,0.025-0.271,0.042c-0.919-0.602-2.016-0.954-3.198-0.954
			c-0.087,0-0.172,0.009-0.258,0.013c-0.757-0.342-1.594-0.537-2.479-0.537c-1.827,0-3.461,0.816-4.567,2.1
			c-0.353-0.135-0.732-0.217-1.132-0.217c-1.744,0-3.161,1.415-3.161,3.161c0,1.747,1.417,3.163,3.161,3.163
			c0.027,0,0.052-0.007,0.079-0.008c0.872,2.258,3.057,3.862,5.621,3.862C276.882,215.26,277.217,215.225,277.546,215.169z"/>
		<path fill="#1C758A" d="M270.783,197.912c0.094,0,0.182-0.02,0.274-0.028c1.078,2.224,3.35,3.762,5.986,3.762
			c1.165,0,2.259-0.3,3.211-0.826c0.257,0.034,0.517,0.058,0.783,0.058c0.206,0,0.408-0.011,0.608-0.031
			c0.797,1.191,2.152,1.977,3.692,1.977c0.881,0,1.698-0.264,2.388-0.707c0.809,0.843,1.94,1.374,3.2,1.374
			c1.24,0,2.359-0.51,3.165-1.329c0.055,0.001,0.108,0.008,0.164,0.008c1.812,0,3.432-0.806,4.531-2.076
			c0.362,0.127,0.745,0.209,1.15,0.209c1.937,0,3.504-1.569,3.504-3.504c0-1.936-1.567-3.504-3.504-3.504
			c-0.136,0-0.265,0.025-0.396,0.04c-1.012-1.881-2.997-3.161-5.285-3.161c-0.434,0-0.856,0.048-1.265,0.136
			c-0.717-0.496-1.584-0.791-2.523-0.791c-0.957,0-1.838,0.31-2.563,0.825c-0.726-0.515-1.607-0.825-2.565-0.825
			c-0.531,0-1.034,0.109-1.507,0.28c-0.831-0.449-1.782-0.704-2.794-0.704c-0.266,0-0.525,0.024-0.782,0.058
			c-0.199-0.109-0.402-0.21-0.612-0.299c0.686-0.401,1.188-1.077,1.34-1.884c0.367-0.171,0.699-0.395,1.003-0.655
			c0.241,0.052,0.489,0.088,0.74,0.109c0.785,1.255,2.169,2.096,3.757,2.096c1.532,0,2.881-0.775,3.68-1.954
			c0.775,1.302,2.181,2.183,3.804,2.183c0.992,0,1.899-0.336,2.638-0.885c0.733,1.446,2.217,2.448,3.948,2.448
			c1.857,0,3.444-1.141,4.108-2.758c1.057,1.166,2.579,1.903,4.277,1.903c2.11,0,3.949-1.135,4.957-2.824
			c1.414-0.246,2.49-1.47,2.49-2.954c0-1.482-1.076-2.706-2.489-2.952c-0.989-1.657-2.78-2.776-4.841-2.818
			c-0.807-0.829-1.931-1.348-3.181-1.348c-1.08,0-2.057,0.4-2.826,1.041c-1.041-1.074-2.495-1.744-4.109-1.744
			c-0.75,0-1.464,0.148-2.121,0.411c-0.84-0.484-1.812-0.766-2.851-0.766c-0.759,0-1.482,0.151-2.145,0.42
			c-0.994-0.748-2.226-1.196-3.566-1.196c-0.913,0-1.773,0.211-2.546,0.579c-0.755-0.355-1.595-0.559-2.485-0.559
			c-2.59,0-4.784,1.686-5.553,4.02c-1.742,0.601-3.001,2.237-3.001,4.184c0,1.008,0.349,1.927,0.915,2.673
			c-0.082,0.262-0.138,0.536-0.138,0.825c0,0.751,0.3,1.43,0.783,1.933c-2.128,0.26-3.945,1.523-4.964,3.305
			c-0.159-0.024-0.317-0.048-0.483-0.048c-1.73,0-3.136,1.403-3.136,3.135S269.053,197.912,270.783,197.912z"/>
		<path fill="#1C758A" d="M291.636,170.304c-0.034,0.222-0.068,0.445-0.068,0.676c0,2.454,1.989,4.443,4.443,4.443
			c1.355,0,2.552-0.619,3.367-1.574c0.375-0.174,0.716-0.403,1.026-0.67c0.732,0.34,1.546,0.536,2.407,0.536
			c3.163,0,5.725-2.563,5.725-5.725s-2.562-5.725-5.725-5.725c-1.211,0-2.332,0.378-3.257,1.02c-0.661,0.117-1.277,0.36-1.814,0.718
			c-0.092-1.409-1.244-2.532-2.678-2.546c-1.504-0.014-2.734,1.194-2.748,2.698c-0.001,0.13,0.019,0.254,0.035,0.38
			c-1.115,0.367-1.926,1.404-1.926,2.643c0,0.771,0.313,1.468,0.816,1.973C291.314,169.56,291.456,169.942,291.636,170.304z"/>
		<path fill="#1C758A" d="M313.124,248.503c-2.779,0-5.073,2.045-5.476,4.71c-0.305-0.066-0.62-0.105-0.945-0.105
			c-0.763,0-1.471,0.21-2.098,0.549c-0.682-0.427-1.481-0.684-2.346-0.684c-2.454,0-4.443,1.99-4.443,4.443s1.989,4.443,4.443,4.443
			c0.764,0,1.472-0.211,2.1-0.55c0.682,0.426,1.48,0.683,2.344,0.683c1.831,0,3.399-1.108,4.08-2.688
			c0.36,0.169,0.757,0.271,1.181,0.271c0.14,0,0.274-0.021,0.409-0.041c0.247,0.033,0.496,0.057,0.751,0.057
			c3.063,0,5.543-2.482,5.543-5.545C318.667,250.985,316.188,248.503,313.124,248.503z"/>
		<path fill="#1C758A" d="M311.468,262.026c-1.322,0-2.497,0.59-3.31,1.507c-0.429,0.206-0.832,0.457-1.199,0.751
			c-0.18-0.103-0.365-0.195-0.554-0.28c-0.796-1.191-2.152-1.976-3.693-1.976c-1.059,0-2.018,0.385-2.78,1.003
			c-0.63-0.342-1.34-0.554-2.107-0.554c-2.451,0-4.441,1.988-4.441,4.441c0,0.06,0.015,0.115,0.018,0.175
			c-0.484,0.791-0.778,1.712-0.778,2.708c0,2.879,2.334,5.213,5.214,5.213c0.507,0,0.986-0.095,1.449-0.229
			c1.168,1.082,2.727,1.749,4.443,1.749c1.688,0,3.221-0.644,4.382-1.69c0.838,0.413,1.778,0.651,2.775,0.651
			c3.479,0,6.294-2.818,6.294-6.295c0-1.552-0.564-2.971-1.495-4.068C315.115,263.336,313.454,262.026,311.468,262.026z"/>
		<path fill="#1C758A" d="M312.647,278.286c0-1.184-0.96-2.143-2.145-2.143c-0.021,0-0.042,0.006-0.063,0.007
			c-0.613-0.319-1.299-0.517-2.038-0.517c-1.751,0-3.251,1.022-3.974,2.496c-0.791-0.573-1.755-0.92-2.806-0.92
			c-1.036,0-1.989,0.335-2.774,0.893c-0.327-0.076-0.664-0.127-1.014-0.127c-1.239,0-2.358,0.51-3.164,1.33
			c-0.817-0.43-1.746-0.676-2.733-0.676c-2.406,0-4.471,1.443-5.386,3.509c-0.968-1.469-2.63-2.44-4.522-2.44
			c-2.99,0-5.413,2.424-5.413,5.414c0,2,1.086,3.741,2.698,4.679c0.772,1.313,2.184,2.204,3.815,2.204
			c1.329,0,2.507-0.595,3.321-1.519c0.814,0.924,1.993,1.519,3.321,1.519c1.441,0,2.707-0.696,3.519-1.759
			c0.724-0.171,1.399-0.463,1.992-0.873c-0.126,0.417-0.214,0.852-0.214,1.312c0,1.062,0.379,2.022,0.985,2.785
			c-0.799-0.771-1.883-1.252-3.083-1.252c-1.472,0-2.767,0.724-3.575,1.825c-0.813-1.025-2.056-1.696-3.468-1.696
			c-1.341,0-2.528,0.606-3.343,1.545c-0.408-0.099-0.833-0.156-1.271-0.156c-2.99,0-5.413,2.424-5.413,5.414
			s2.423,5.414,5.413,5.414c2.267,0,4.206-1.394,5.012-3.37c1.305-0.118,2.444-0.786,3.177-1.787
			c0.652,0.822,1.577,1.414,2.65,1.614c-0.63,0.711-0.981,1.666-0.878,2.686c0.196,1.936,1.924,3.346,3.858,3.15
			c1.936-0.197,3.346-1.924,3.15-3.859c-0.146-1.433-1.131-2.573-2.417-2.992c0.94-0.814,1.547-2.003,1.547-3.346
			c0-1.053-0.381-2.007-0.993-2.769c0.774,0.755,1.815,1.226,2.968,1.226c2.387,0,4.32-1.984,4.32-4.432
			c0-1.682-0.922-3.127-2.267-3.878c0.062,0.002,0.12,0.019,0.183,0.019c2.006,0,3.719-1.231,4.438-2.978
			c0.681,0.426,1.48,0.683,2.342,0.683c2.455,0,4.443-1.99,4.443-4.443c0-0.483-0.097-0.94-0.239-1.376
			C312.632,278.566,312.647,278.429,312.647,278.286z"/>
	</g>
	<circle fill="#44484E" cx="402.188" cy="223.465" r="4.442"/>
	<linearGradient id="SVGID_9_" gradientUnits="userSpaceOnUse" x1="342.4365" y1="337.915" x2="441.1299" y2="337.915">
		<stop  offset="0" style="stop-color:#29ABCA"/>
		<stop  offset="0.0332" style="stop-color:#3FABBE"/>
		<stop  offset="0.1052" style="stop-color:#68ABA8"/>
		<stop  offset="0.1836" style="stop-color:#8DAB94"/>
		<stop  offset="0.2676" style="stop-color:#ACAC84"/>
		<stop  offset="0.359" style="stop-color:#C5AC76"/>
		<stop  offset="0.4606" style="stop-color:#D8AC6C"/>
		<stop  offset="0.5781" style="stop-color:#E6AC65"/>
		<stop  offset="0.7257" style="stop-color:#EEAC60"/>
		<stop  offset="1" style="stop-color:#F0AC5F"/>
	</linearGradient>
	<path fill="url(#SVGID_9_)" d="M435.237,380.867c-0.025,0-0.051,0.004-0.076,0.005c-0.274-1.212-1.224-2.156-2.428-2.441
		l0.593-0.929c2.553-0.644,4.432-2.961,4.406-5.709c-0.021-2.393-1.481-4.434-3.55-5.316c-0.937-1.655-2.718-2.767-4.754-2.748
		c-1.588,0.015-3.005,0.718-3.983,1.818c-0.492-1.442-1.748-2.516-3.292-2.739c-0.14-0.661-0.729-1.154-1.433-1.147
		c-0.074,0.001-0.146,0.012-0.218,0.023c0.066-0.225,0.111-0.459,0.109-0.705c-0.003-0.352-0.084-0.683-0.221-0.983
		c1.45-1.02,2.393-2.709,2.375-4.614c-0.028-3.08-2.551-5.555-5.632-5.525c-0.954,0.009-1.851,0.258-2.633,0.688
		c-0.718,0.147-1.384,0.432-1.975,0.821c-0.372-0.117-0.762-0.195-1.173-0.191c-0.495,0.005-0.964,0.11-1.396,0.286
		c0.063-0.254,0.106-0.516,0.104-0.79c-0.009-0.888-0.382-1.686-0.975-2.257c0.001-0.028,0.008-0.055,0.008-0.083
		c-0.012-1.232-1.02-2.225-2.254-2.213c-0.373,0.004-0.718,0.107-1.025,0.271c-0.233-0.764-0.768-1.391-1.472-1.752
		c0.169-0.57,0.258-1.174,0.252-1.799c-0.031-3.396-2.81-6.121-6.205-6.09c-0.744,0.007-1.453,0.152-2.111,0.401l-2.365,0.116
		l-2.742,0.748c-0.475-0.824-1.357-1.383-2.376-1.373c-0.813,0.008-1.53,0.377-2.024,0.945c-0.104-0.011-0.207-0.025-0.313-0.031
		c0.207-0.543,0.333-1.125,0.368-1.731c1.67-0.64,2.86-2.246,2.86-4.14c0-2.453-1.988-4.443-4.443-4.443
		c-1.411,0-2.654,0.672-3.468,1.698c-0.318-0.188-0.663-0.337-1.036-0.417c-0.402-1.249-1.471-2.188-2.794-2.395
		c-0.354-2.919-2.809-5.189-5.81-5.255c0.001-0.029,0.009-0.058,0.009-0.087c0-1.398-0.755-2.609-1.87-3.281
		c0.02-0.158,0.045-0.314,0.045-0.479c0-2.004-1.54-3.63-3.497-3.806c-0.645-1.215-1.907-2.052-3.377-2.052
		c-0.413,0-0.804,0.082-1.177,0.203c-0.08-0.639-0.265-1.244-0.534-1.801c0.254,0.305,0.51,0.625,0.769,0.982
		c0,0-1.255-3.072,2.706-5.783c0,0,3.164-1.711,4.063-2.127c0.898-0.418-0.664-2.176-1.8-3.547c0,0-7.97-1.855-1.636-7.695
		c0,0,2.943-4.32,6.076-3.697c0.194,0.037,0.389,0.096,0.583,0.174c0,0,3.116-0.682,3.646,0s1.942-1.859,2.981-1.859
		c0.91,0-3.973,0.033-5.975-4.446c0.072-0.217,0.121-0.445,0.121-0.687c0-1.195-0.97-2.166-2.166-2.166
		c-0.588,0-1.118,0.236-1.509,0.615c-1.069-1.219-2.636-1.992-4.386-1.992c-3.223,0-5.838,2.613-5.838,5.84
		c0,2.155,1.171,4.033,2.908,5.045c-0.385,0.422-0.864,1.229-0.502,2.449c0,0-2.939-0.311-3.439,2.369c0,0-0.14,0.17-0.376,0.463
		c-1.028-0.904-2.372-1.457-3.849-1.457c-2.271,0-4.235,1.302-5.201,3.197c-1.87,0.973-3.149,2.925-3.149,5.18
		c0,2.381,1.428,4.426,3.471,5.335c-0.629,1.18-0.99,2.141-0.915,2.7c-0.015,0-0.03-0.002-0.045-0.002
		c-3.223,0-5.838,2.615-5.838,5.84c0,3.156,2.508,5.723,5.637,5.83c0,0.003-0.001,0.006-0.001,0.01c0,0.844,0.578,1.546,1.356,1.752
		c-0.028,0.231-0.044,0.466-0.044,0.705c0,2.753,1.908,5.056,4.471,5.672c0.391,0.369,0.861,0.648,1.379,0.827
		c-0.003,0.085-0.013,0.168-0.013,0.253c0,0.335,0.034,0.66,0.087,0.98c-0.84,0.644-1.392,1.646-1.392,2.787
		c0,1.79,1.341,3.253,3.069,3.478c0,0.016-0.004,0.029-0.004,0.044c0,1.945,1.577,3.523,3.521,3.523c0.93,0,1.77-0.368,2.4-0.957
		c0.962,2.021,3.016,3.42,5.4,3.42c0.211,0,0.419-0.012,0.624-0.033l0.623,1.069c-1.136,0.782-1.882,2.088-1.882,3.571
		c0,2.396,1.942,4.338,4.338,4.338c1.277,0,2.414-0.562,3.208-1.44c-0.071,0.313-0.117,0.635-0.117,0.97
		c0,2.396,1.941,4.338,4.338,4.338c0.094,0,0.182-0.021,0.274-0.027c0.743,0.598,1.676,0.971,2.704,0.971
		c1.521,0,2.854-0.785,3.628-1.97c0.35,1.049,1.063,1.911,1.995,2.438c-0.382,0.568-0.604,1.254-0.597,1.99
		c0.011,1.239,0.664,2.317,1.637,2.937c0.269,2.203,2.091,3.905,4.306,3.886c0.907-0.008,1.744-0.306,2.436-0.802l0.269,0.073
		c0.206,2.513,2.249,4.483,4.745,4.461c0.794-0.007,1.528-0.232,2.182-0.593c0.26,0.054,0.527,0.082,0.802,0.079
		c0.385-0.004,0.747-0.082,1.098-0.191l-1.032,1.16l0.009,0.971c-0.425,0.719-0.677,1.557-0.669,2.461
		c0.023,2.58,2.069,4.65,4.566,4.627c0.646-0.006,1.255-0.154,1.808-0.41c0.209,0.924,0.735,1.717,1.448,2.289
		c-0.907,0.586-1.509,1.604-1.498,2.764c0.016,1.649,1.256,2.987,2.847,3.19c-0.439,0.755-0.704,1.625-0.695,2.563
		c0.025,2.768,2.276,4.988,5.026,4.963c0.315-0.003,0.621-0.043,0.92-0.102c-0.203,0.473-0.318,0.991-0.313,1.539
		c0.02,2.109,1.744,3.803,3.853,3.783c0.893-0.008,1.699-0.335,2.345-0.854c0.563,0.317,1.206,0.511,1.899,0.504
		c1.111-0.011,2.098-0.502,2.788-1.267c0.513,0.241,1.077,0.38,1.673,0.374c2.264-0.02,4.081-2.012,4.059-4.449
		c-0.001-0.146-0.029-0.283-0.044-0.426c0.463,0.113,0.945,0.179,1.443,0.174c3.226-0.029,5.814-2.668,5.785-5.893
		C441.1,383.426,438.463,380.836,435.237,380.867z M351.341,309.338c-0.064-0.04-0.129-0.081-0.195-0.119
		c0.205-0.2,0.506-0.53,0.898-0.899C351.775,308.633,351.539,308.973,351.341,309.338z M366.102,325.908
		c-0.25-0.354-0.54-0.68-0.86-0.972c0.311-0.318,0.581-0.674,0.813-1.057c0.182,0.133,0.376,0.246,0.579,0.346
		C366.377,324.748,366.196,325.313,366.102,325.908z M423.996,382.912l-0.076,0.086l-0.112-0.025
		C423.872,382.956,423.933,382.931,423.996,382.912z"/>
	<linearGradient id="SVGID_10_" gradientUnits="userSpaceOnUse" x1="356.0713" y1="220.0557" x2="440.3467" y2="220.0557">
		<stop  offset="0" style="stop-color:#29ABCA"/>
		<stop  offset="0.1261" style="stop-color:#2EABC8"/>
		<stop  offset="0.2681" style="stop-color:#3BABC0"/>
		<stop  offset="0.4177" style="stop-color:#52ABB4"/>
		<stop  offset="0.5727" style="stop-color:#71ABA3"/>
		<stop  offset="0.732" style="stop-color:#9AAC8D"/>
		<stop  offset="0.8923" style="stop-color:#CBAC73"/>
		<stop  offset="1" style="stop-color:#F0AC5F"/>
	</linearGradient>
	<path fill="url(#SVGID_10_)" d="M434.508,236.447c-0.026,0-0.051,0.003-0.077,0.004c-0.264-1.213-1.203-2.167-2.403-2.462
		l0.6-0.921c2.559-0.621,4.46-2.92,4.46-5.669c0-2.409-1.457-4.475-3.538-5.368c-0.926-1.647-2.668-2.773-4.691-2.773
		c-1.591,0-3.007,0.701-3.995,1.796c-0.475-1.455-1.725-2.547-3.271-2.785c-0.135-0.662-0.72-1.161-1.422-1.161
		c-0.075,0-0.146,0.011-0.218,0.022c0.067-0.224,0.115-0.458,0.115-0.704c0-0.092-0.018-0.179-0.027-0.268
		c1.822-0.765,3.189-2.453,3.402-4.556c0.311-3.064-1.925-5.801-4.99-6.109c-0.609-0.062-1.204-0.019-1.771,0.107
		c-0.286-0.042-0.577-0.069-0.875-0.066c-0.997,0.009-1.931,0.277-2.74,0.737c-0.166-0.04-0.33-0.085-0.504-0.103
		c-0.752-0.077-1.471,0.078-2.099,0.396c0.054-0.183,0.097-0.371,0.116-0.568c0.066-0.659-0.074-1.29-0.367-1.831
		c0.222-0.308,0.375-0.669,0.416-1.073c0.124-1.227-0.77-2.32-1.998-2.445c-0.371-0.038-0.725,0.027-1.049,0.156
		c-0.235-1.251-1.269-2.259-2.614-2.395c-0.034-0.003-0.067,0.002-0.102,0c-0.165-0.716-0.769-1.282-1.548-1.361
		c-0.378-0.038-0.738,0.046-1.046,0.217c0.424-0.731,0.707-1.56,0.798-2.455c0.342-3.379-2.12-6.393-5.499-6.734
		c-1.791-0.181-3.476,0.432-4.718,1.546c-0.329-0.197-0.701-0.332-1.107-0.374c0.277-0.551,0.475-1.153,0.566-1.797
		c0.362-2.539-0.973-4.925-3.14-6.026c-0.393-0.784-1.071-1.41-1.922-1.725c-0.223-1.293-1.147-2.373-2.429-2.764
		c0.063-2.942-2.048-5.536-5.01-6.024c0.005-0.029,0.017-0.055,0.021-0.084c0.3-2.098-1.16-4.043-3.258-4.342
		s-4.045,1.16-4.343,3.26c-0.083,0.578-0.021,1.14,0.141,1.664c-0.625,0.238-1.166,0.647-1.566,1.184
		c-0.649-0.377-1.378-0.642-2.167-0.754c-0.067-0.01-0.135-0.011-0.202-0.019c0.07-0.247,0.13-0.5,0.167-0.761
		c0.454-3.193-1.764-6.15-4.957-6.605c-1.683-0.239-3.296,0.271-4.517,1.269c-0.263-0.247-0.599-0.419-0.982-0.474
		c-0.994-0.141-1.915,0.551-2.057,1.547c-0.119,0.836,0.354,1.613,1.098,1.925c-0.061,0.226-0.112,0.455-0.146,0.692
		c-0.389,2.726,1.178,5.276,3.629,6.248c0.335,0.419,0.76,0.761,1.247,1.011c-0.015,0.083-0.036,0.165-0.048,0.25
		c-0.047,0.331-0.059,0.658-0.052,0.981c-0.923,0.519-1.611,1.434-1.772,2.564c-0.251,1.772,0.87,3.41,2.549,3.875
		c-0.002,0.015-0.009,0.029-0.011,0.044c-0.274,1.926,1.064,3.709,2.989,3.982c0.921,0.132,1.805-0.114,2.511-0.608
		c0.667,2.136,2.503,3.812,4.863,4.149c0.209,0.03,0.417,0.048,0.624,0.056l0.465,1.144c-1.234,0.615-2.157,1.802-2.366,3.271
		c-0.338,2.371,1.312,4.568,3.684,4.906c1.274,0.182,2.483-0.225,3.391-0.999c-0.121,0.307-0.217,0.627-0.266,0.968
		c-0.337,2.373,1.311,4.57,3.684,4.908c0.093,0.013,0.184,0.004,0.275,0.011c0.652,0.697,1.522,1.197,2.541,1.342
		c0.791,0.112,1.559-0.005,2.246-0.289c0.307,0.819,0.84,1.519,1.536,2.021c-0.442,0.523-0.737,1.18-0.812,1.912
		c-0.125,1.232,0.405,2.377,1.305,3.099c0.025,2.221,1.648,4.113,3.853,4.336c0.903,0.091,1.768-0.112,2.509-0.531l0.259,0.102
		c-0.071,2.521,1.743,4.705,4.227,4.956c0.796,0.081,1.563-0.05,2.252-0.343c0.246,0.079,0.504,0.133,0.771,0.16
		c1.261,0.128,2.432-0.387,3.235-1.272c0.008,0.059,0.009,0.119,0.019,0.177l-1.122,1.089l-0.273,0.302
		c-0.219-0.075-0.449-0.125-0.693-0.125c-1.183,0-2.143,0.959-2.143,2.143c0,0.644,0.29,1.215,0.739,1.608
		c-0.202,0.529-0.322,1.103-0.322,1.706c0,2.578,2.026,4.67,4.523,4.67c0.657,0,1.278-0.151,1.842-0.412
		c0.095,0.448,0.243,0.874,0.472,1.255c-1.563,0.688-2.656,2.247-2.656,4.063c0,2.402,1.912,4.349,4.296,4.429
		c-0.082,0.353-0.14,0.715-0.14,1.095c0,0.379,0.05,0.745,0.129,1.1h-1.087c0,0,4.952,5.483-2.221,11.406
		c-2.441,0.785-4.21,3.074-4.21,5.777c0,2.054,1.021,3.864,2.581,4.963c-0.514,0.869-0.813,1.88-0.813,2.963
		c0,3.225,2.615,5.84,5.838,5.84c2.46,0,4.56-1.523,5.42-3.676c0.516,0.15,1.052,0.252,1.616,0.252c3.226,0,5.839-2.615,5.839-5.84
		c0-0.044-0.006-0.086-0.007-0.13c0.418-0.222,1.154-0.775,1.332-2.007c0,0,4.875-1.486,2.25-6.361c0,0-0.5-0.85,0.063-1.301
		c0.563-0.449,5.571-2.18,5.321-7.09c0,0-0.018,0.042-0.048,0.105c0.12-0.414,0.203-0.846,0.203-1.303
		c0-0.146-0.027-0.285-0.04-0.427c0.462,0.118,0.943,0.187,1.442,0.187c3.226,0,5.839-2.615,5.839-5.84
		S437.733,236.447,434.508,236.447z M408.636,208.595c-0.048,0.125-0.092,0.249-0.127,0.38c-0.056-0.089-0.119-0.172-0.184-0.256
		C408.434,208.687,408.533,208.638,408.636,208.595z M401.412,198.411c-0.015,0.068-0.035,0.135-0.042,0.207
		c-0.001,0.011,0.002,0.021,0.001,0.031c-0.037-0.035-0.068-0.076-0.108-0.109C401.31,198.493,401.367,198.458,401.412,198.411z
		 M423.171,238.475l-0.113-0.027c0.065-0.016,0.127-0.041,0.191-0.059L423.171,238.475z"/>
	<g>
		<path fill="#1C758A" d="M396.596,329.826c-0.861,0-1.675,0.195-2.406,0.536c-0.311-0.268-0.651-0.497-1.027-0.671
			c-0.814-0.955-2.012-1.574-3.366-1.574c-2.454,0-4.443,1.99-4.443,4.443c0,0.231,0.034,0.454,0.068,0.677
			c-0.181,0.361-0.321,0.744-0.397,1.153c-0.504,0.505-0.816,1.202-0.816,1.973c0,1.543,1.252,2.795,2.793,2.795
			c0.114,0,0.222-0.021,0.332-0.033c0.616,0.323,1.307,0.523,2.051,0.523c0.642,0,1.247-0.142,1.798-0.386
			c0.615,0.497,1.347,0.85,2.158,0.993c0.925,0.642,2.046,1.02,3.257,1.02c3.163,0,5.725-2.563,5.725-5.725
			S399.759,329.826,396.596,329.826z"/>
		<path fill="#1C758A" d="M364.623,298.459c0.4,0,0.78-0.082,1.132-0.218c1.106,1.284,2.74,2.101,4.567,2.101
			c0.885,0,1.722-0.194,2.479-0.536c0.086,0.004,0.171,0.013,0.258,0.013c1.182,0,2.278-0.353,3.198-0.954
			c0.09,0.016,0.18,0.029,0.271,0.041c0.73,0.529,1.622,0.851,2.594,0.851c1.408,0,2.647-0.667,3.462-1.688
			c0.444,0.11,0.907,0.176,1.387,0.176c1.051,0,2.032-0.288,2.879-0.781c0.804,0.797,1.909,1.291,3.131,1.291
			c1.488,0,2.796-0.737,3.603-1.859c2.937-0.286,5.229-2.759,5.229-5.771c0-3.203-2.595-5.801-5.8-5.801
			c-2.207,0-4.125,1.232-5.106,3.046c-1.025-0.973-2.408-1.573-3.935-1.573c-1.464,0-2.795,0.554-3.807,1.457
			c-0.851-0.497-1.837-0.787-2.894-0.787c-1.063,0-2.055,0.294-2.908,0.797c-0.42-0.096-0.854-0.15-1.304-0.15
			c-0.603,0-1.184,0.092-1.73,0.261c-0.327-0.056-0.662-0.091-1.006-0.091c-2.563,0-4.748,1.604-5.62,3.861
			c-0.027-0.001-0.052-0.008-0.079-0.008c-1.744,0-3.161,1.416-3.161,3.164C361.462,297.045,362.879,298.459,364.623,298.459z"/>
		<path fill="#1C758A" d="M407.681,316.905c-1.008-1.688-2.847-2.823-4.957-2.823c-1.698,0-3.22,0.737-4.276,1.903
			c-0.664-1.617-2.251-2.759-4.108-2.759c-1.731,0-3.215,1.002-3.948,2.448c-0.739-0.55-1.646-0.886-2.638-0.886
			c-1.624,0-3.029,0.882-3.804,2.184c-0.799-1.179-2.148-1.953-3.681-1.953c-1.588,0-2.972,0.841-3.757,2.096
			c-0.252,0.021-0.498,0.057-0.739,0.109c-0.305-0.261-0.638-0.484-1.005-0.655c-0.152-0.807-0.653-1.482-1.339-1.884
			c0.211-0.089,0.414-0.19,0.613-0.3c0.256,0.034,0.515,0.058,0.78,0.058c1.012,0,1.963-0.255,2.794-0.704
			c0.473,0.172,0.976,0.28,1.507,0.28c0.958,0,1.84-0.31,2.565-0.825c0.726,0.516,1.606,0.825,2.563,0.825
			c0.938,0,1.807-0.294,2.523-0.79c0.408,0.087,0.83,0.136,1.265,0.136c2.288,0,4.273-1.28,5.284-3.161
			c0.132,0.015,0.261,0.04,0.396,0.04c1.937,0,3.504-1.568,3.504-3.504c0-1.934-1.567-3.504-3.504-3.504
			c-0.405,0-0.788,0.083-1.15,0.209c-1.1-1.269-2.719-2.074-4.53-2.074c-0.056,0-0.109,0.007-0.164,0.008
			c-0.806-0.818-1.925-1.328-3.165-1.328c-1.26,0-2.391,0.53-3.199,1.373c-0.691-0.442-1.507-0.707-2.389-0.707
			c-1.54,0-2.896,0.785-3.692,1.977c-0.2-0.021-0.403-0.031-0.608-0.031c-0.267,0-0.526,0.023-0.783,0.058
			c-0.952-0.524-2.046-0.825-3.211-0.825c-2.636,0-4.907,1.538-5.986,3.762c-0.092-0.008-0.18-0.027-0.274-0.027
			c-1.73,0-3.136,1.406-3.136,3.137c0,1.732,1.405,3.135,3.136,3.135c0.166,0,0.324-0.024,0.482-0.049
			c1.02,1.782,2.835,3.046,4.964,3.307c-0.482,0.502-0.782,1.181-0.782,1.932c0,0.289,0.057,0.563,0.139,0.825
			c-0.566,0.746-0.915,1.665-0.915,2.673c0,1.947,1.259,3.583,3.001,4.184c0.77,2.333,2.964,4.02,5.554,4.02
			c0.89,0,1.73-0.204,2.485-0.56c0.772,0.367,1.634,0.579,2.546,0.579c1.341,0,2.572-0.448,3.566-1.195
			c0.663,0.269,1.386,0.42,2.145,0.42c1.04,0,2.011-0.281,2.851-0.766c0.656,0.262,1.371,0.41,2.121,0.41
			c1.614,0,3.069-0.67,4.109-1.743c0.77,0.64,1.746,1.04,2.826,1.04c1.249,0,2.374-0.519,3.181-1.348
			c2.062-0.041,3.852-1.16,4.841-2.817c1.414-0.246,2.489-1.469,2.489-2.952S409.095,317.151,407.681,316.905z"/>
		<circle fill="#1C758A" cx="366.537" cy="325.481" r="3.522"/>
		<path fill="#1C758A" d="M406.909,243.949c-0.256,0-0.505,0.023-0.752,0.057c-0.134-0.02-0.269-0.041-0.408-0.041
			c-0.424,0-0.821,0.102-1.181,0.271c-0.681-1.58-2.249-2.688-4.08-2.688c-0.863,0-1.663,0.257-2.346,0.684
			c-0.627-0.339-1.334-0.549-2.098-0.549c-2.454,0-4.443,1.988-4.443,4.443c0,2.453,1.989,4.441,4.443,4.441
			c0.863,0,1.663-0.257,2.345-0.683c0.628,0.339,1.335,0.55,2.099,0.55c0.325,0,0.641-0.04,0.945-0.105
			c0.403,2.665,2.697,4.709,5.476,4.709c3.063,0,5.543-2.48,5.543-5.543C412.452,246.434,409.973,243.949,406.909,243.949z"/>
		<path fill="#1C758A" d="M393.07,228.755c-0.463-0.135-0.943-0.23-1.45-0.23c-2.88,0-5.214,2.334-5.214,5.213
			c0,0.996,0.294,1.917,0.778,2.708c-0.002,0.06-0.018,0.115-0.018,0.175c0,2.453,1.99,4.443,4.441,4.443
			c0.768,0,1.479-0.212,2.108-0.555c0.763,0.617,1.722,1.002,2.779,1.002c1.541,0,2.896-0.785,3.693-1.975
			c0.189-0.085,0.375-0.178,0.555-0.28c0.367,0.294,0.771,0.544,1.198,0.75c0.814,0.917,1.988,1.507,3.311,1.507
			c1.986,0,3.646-1.31,4.217-3.106c0.931-1.097,1.494-2.516,1.494-4.068c0-3.475-2.815-6.295-6.294-6.295
			c-0.998,0-1.938,0.238-2.776,0.651c-1.161-1.046-2.693-1.688-4.381-1.688C395.796,227.008,394.238,227.674,393.07,228.755z"/>
		<path fill="#1C758A" d="M375.096,209.814c0.438,0,0.862-0.058,1.271-0.156c0.815,0.939,2.003,1.545,3.344,1.545
			c1.412,0,2.654-0.67,3.468-1.696c0.809,1.102,2.104,1.825,3.575,1.825c1.202,0,2.288-0.481,3.088-1.256
			c-0.609,0.764-0.99,1.728-0.99,2.792c0,0.458,0.087,0.892,0.213,1.308c-0.597-0.413-1.273-0.715-2.002-0.885
			c-0.813-1.053-2.073-1.743-3.507-1.743c-1.328,0-2.507,0.594-3.32,1.518c-0.814-0.923-1.992-1.518-3.321-1.518
			c-1.631,0-3.042,0.89-3.814,2.201c-1.612,0.938-2.699,2.68-2.699,4.68c0,2.99,2.423,5.414,5.413,5.414
			c1.893,0,3.555-0.971,4.522-2.441c0.915,2.066,2.979,3.509,5.386,3.509c0.987,0,1.916-0.246,2.733-0.675
			c0.806,0.819,1.925,1.33,3.164,1.33c0.351,0,0.687-0.05,1.014-0.127c0.785,0.558,1.738,0.893,2.774,0.893
			c2.653,0,4.802-2.148,4.802-4.801s-2.148-4.803-4.802-4.803c-0.063,0-0.12,0.016-0.182,0.019c1.344-0.752,2.266-2.196,2.266-3.878
			c0-2.447-1.934-4.432-4.32-4.432c-1.154,0-2.198,0.472-2.974,1.229c0.615-0.762,0.999-1.719,0.999-2.774
			c0-2.453-1.987-4.443-4.442-4.443c-1.411,0-2.654,0.671-3.468,1.697c-0.733-1-1.871-1.668-3.177-1.786
			c-0.806-1.977-2.745-3.372-5.013-3.372c-2.99,0-5.413,2.424-5.413,5.414S372.105,209.814,375.096,209.814z"/>
		<path fill="#1C758A" d="M413.419,263.491c0.028-0.235,0.048-0.473,0.048-0.716c0-3.227-2.613-5.84-5.839-5.84
			c-0.787,0-1.536,0.158-2.222,0.44c-0.094-0.01-0.185-0.028-0.281-0.028c-0.148,0-0.292,0.021-0.435,0.044
			c-0.81-0.855-1.948-1.396-3.22-1.396c-1.387,0-2.61,0.65-3.426,1.647c-0.305-0.05-0.615-0.083-0.935-0.083
			c-2.39,0-4.435,1.465-5.292,3.545c-0.25-0.056-0.508-0.092-0.774-0.092c-1.934,0-3.504,1.568-3.504,3.504
			c0,1.25,0.66,2.34,1.646,2.96c-0.557,0.411-0.925,1.053-0.969,1.786c-0.729-0.327-1.536-0.514-2.388-0.514
			c-2.497,0-4.624,1.571-5.458,3.779c-0.542-0.259-1.143-0.416-1.783-0.416c-1.525,0-2.846,0.83-3.569,2.056
			c-1.183,0.698-2.092,1.804-2.533,3.128c-0.58,0.906-0.921,1.981-0.921,3.139c0,3.225,2.615,5.84,5.838,5.84
			c1.977,0,3.721-0.985,4.776-2.487c0.055,0.002,0.106,0.015,0.161,0.015c0.316,0,0.624-0.032,0.925-0.085
			c0.731,0.531,1.624,0.853,2.597,0.853c1.825,0,3.39-1.102,4.073-2.674c0.28-0.193,0.542-0.41,0.788-0.645
			c0.639,0.23,1.324,0.363,2.043,0.363c1.111,0,2.148-0.307,3.041-0.831c0.266-0.088,0.521-0.196,0.768-0.32
			c0.801,1.167,2.142,1.935,3.663,1.935c1.89,0,3.493-1.184,4.136-2.845c0.914-0.459,1.547-1.395,1.547-2.487
			c0-0.305-0.061-0.593-0.151-0.867c0.216,0.041,0.437,0.066,0.664,0.066c1.94,0,3.514-1.572,3.514-3.514
			c0-1.152-0.563-2.166-1.419-2.807c0.169-0.41,0.265-0.858,0.265-1.33c0-0.039-0.011-0.076-0.012-0.115
			c0.089-0.018,0.175-0.043,0.263-0.064c0.582,1.199,1.801,2.033,3.223,2.033c1.986,0,3.594-1.607,3.594-3.592
			C415.859,265.298,414.835,263.973,413.419,263.491z M392.898,268.711c-0.109-0.358-0.294-0.682-0.544-0.948
			c0.263-0.105,0.506-0.245,0.732-0.408c0.269,0.266,0.564,0.504,0.882,0.713C393.538,268.149,393.166,268.385,392.898,268.711z"/>
	</g>
	<g>
		<g>
			<path fill="#333333" d="M320.108,200.608c-0.401-0.143-0.516-0.088-0.541-0.265c-0.241,0.241-0.482,0.482-0.724,0.724
				c6.085,1.734,10.422,7.196,16.828,8.124c0.805,0.117,1.531-0.316,1.564-1.191c0.158-4.137-2.894-7.813-5.854-10.381
				c-0.717-0.622-2.276-0.303-2.126,0.881c0.66,5.209,7.082,9.826,10.851,12.895c0.411-0.705,0.821-1.411,1.231-2.116
				c-1.445-0.298-15.297-1.322-12.227,2.741c0.49,0.648,1.671,0.718,1.885-0.247c0.252-1.137,8.483-0.295,9.669-0.053
				c1.12,0.228,2.301-1.25,1.231-2.116c-3.031-2.455-9.619-6.979-10.149-11.105c-0.709,0.293-1.417,0.587-2.126,0.881
				c2.47,2.135,5.272,5.135,5.146,8.619c0.521-0.397,1.042-0.794,1.564-1.191c-6.377-0.912-10.808-6.685-17.329-6.897
				c-0.466-0.015-0.706,0.505-0.508,0.885c0.073,0.141,0.146,0.281,0.219,0.421c0.139,0.267,0.449,0.285,0.692,0.182
				c0.163-0.003,0.326-0.005,0.489-0.008C320.407,201.488,320.604,200.785,320.108,200.608L320.108,200.608z"/>
		</g>
	</g>
	<g>
		<g>
			<path fill="#333333" d="M379.342,244.23c-3.315,1.62-8.651-1.72-11.528-3.136c-2.948-1.452-5.736-3.233-8.718-4.613
				c-1.211-0.561-2.349,0.817-1.431,1.854c1.87,2.11,2.91,4.311,3.085,7.165c0.818-0.111,1.636-0.222,2.454-0.332
				c-0.633-3.801-1.946-7.348-3.602-10.813c-0.669,0.516-1.337,1.032-2.006,1.548c3.068,2.581,7.283,3.309,10.963,1.555
				c0.969-0.462,0.53-2.188-0.56-2.067c-3.166,0.351-5.859,0.997-8.597-1.294c-1.125-0.94-2.648,0.214-2.006,1.548
				c1.577,3.277,2.747,6.611,3.398,10.188c0.252,1.385,2.562,1.068,2.454-0.332c-0.268-3.476-1.564-6.263-3.915-8.835
				c-0.477,0.618-0.954,1.236-1.431,1.854c3.973,1.766,7.643,4.151,11.682,5.791c2.624,1.064,7.853,3.285,10.135,0.411
				C379.94,244.445,379.674,244.068,379.342,244.23L379.342,244.23z"/>
		</g>
	</g>
	<g>
		<g>
			<g>
				<path fill="#C78D46" d="M290.109,105.811c1.601-0.241,3.12-0.785,4.747-0.897c0.875-0.199,1.391,0.154,1.545,1.06
					c-0.375,0.352-0.79,0.646-1.246,0.88c-0.813,0.481-1.733,0.739-2.648,0.935c-1.569,0.335-1.269,2.402,0,2.878
					c1.737,0.651,7.403,3.515,5.175,5.777c-0.717,0.728-2.285,0.666-3.213,0.686c-1.335,0.028-1.9-0.085-2.52-1.162
					c-0.294-0.511-1.069-0.777-1.582-0.415c-2.189,1.545-0.632,3.702,1.282,4.495c2.09,0.866,5.497,0.46,7.439-0.637
					c6.89-3.892-1.875-10.272-5.789-11.621c0,0.959,0,1.918,0,2.878c2.026-0.553,7.618-3.06,5.772-6.117
					c-2.114-3.5-6.718-1.267-9.354,0.333C289.194,105.201,289.564,105.893,290.109,105.811L290.109,105.811z"/>
			</g>
		</g>
		<g>
			<g>
				<path fill="#C78D46" d="M304.807,97.999c-0.026-0.238-0.258-0.646-0.214-0.849c0.09-0.416-0.321-0.739-0.703-0.54
					c-0.776,0.405-0.621,1.47-0.656,2.226c-0.059,1.247-0.032,2.311-0.617,3.447c-0.704,1.366,1.205,2.474,2.051,1.198
					c0.682-1.027,0.685-2.341,0.62-3.529c-0.05-0.91,0.021-2.881-0.915-3.341c-0.218,0.218-0.436,0.437-0.654,0.654
					c0.201,0.279,0.618,0.461,0.72,0.785C304.5,98.241,304.831,98.217,304.807,97.999L304.807,97.999z"/>
			</g>
		</g>
	</g>
	<g>
		<g>
			<g>
				<path fill="#C78D46" d="M433.159,407.935c1.601-0.24,3.12-0.784,4.746-0.896c0.876-0.198,1.391,0.154,1.546,1.06
					c-0.374,0.352-0.79,0.646-1.246,0.88c-0.813,0.48-1.733,0.738-2.648,0.935c-1.569,0.335-1.269,2.401,0,2.877
					c1.737,0.652,7.403,3.516,5.175,5.777c-0.717,0.729-2.284,0.666-3.213,0.686c-1.335,0.028-1.899-0.085-2.521-1.162
					c-0.294-0.511-1.068-0.776-1.582-0.414c-2.188,1.545-0.632,3.701,1.283,4.494c2.091,0.866,5.497,0.46,7.439-0.637
					c6.891-3.892-1.877-10.272-5.789-11.621c0,0.959,0,1.918,0,2.877c2.025-0.552,7.618-3.059,5.771-6.115
					c-2.113-3.5-6.717-1.268-9.353,0.333C432.244,407.325,432.614,408.017,433.159,407.935L433.159,407.935z"/>
			</g>
		</g>
		<g>
			<g>
				<path fill="#C78D46" d="M447.856,400.123c-0.026-0.239-0.258-0.646-0.213-0.85c0.09-0.416-0.322-0.739-0.703-0.54
					c-0.776,0.406-0.62,1.47-0.656,2.226c-0.059,1.247-0.032,2.312-0.617,3.446c-0.704,1.366,1.205,2.474,2.051,1.199
					c0.682-1.027,0.685-2.342,0.62-3.529c-0.05-0.91,0.021-2.881-0.915-3.342c-0.218,0.218-0.437,0.437-0.654,0.654
					c0.201,0.279,0.618,0.461,0.72,0.785C447.549,400.366,447.88,400.342,447.856,400.123L447.856,400.123z"/>
			</g>
		</g>
	</g>
	<g>
		<g>
			<g>
				<path fill="#1C758A" d="M382.564,139.035c-0.769,0.065,0.613-0.99-0.566-0.634c-0.389,0.118-0.772,0.408-1.122,0.603
					c-1.177,0.654-2.301,1.399-3.484,2.045c-0.658,0.359-1.822,0.555-2.226,1.244c-0.952,1.625-1.232,3.563-2.246,5.206
					c-0.541,0.875,0.154,2.104,1.189,2.073c3.125-0.095,8.964-1.959,7.799,3.417c-0.866,3.997-5.451,1.146-7.286,0.141
					c-0.63-0.345-1.238-0.001-1.492,0.607c-1.926,4.616,8.704,5.516,10.798,1.929c1.365-2.339,1.67-5.547-0.254-7.729
					c-2.652-3.01-6.113-1.381-9.564-1.12c0.396,0.691,0.793,1.382,1.189,2.073c0.657-1.184,1.303-4.765,2.26-5.28
					c1.4-0.753,2.775-1.69,4.027-2.666c0.293-0.228,2.736-3.303,0.885-2.599C382.127,138.476,382.141,139.071,382.564,139.035
					L382.564,139.035z"/>
			</g>
		</g>
		<g>
			<g>
				<path fill="#1C758A" d="M388.892,135.134c0.383,1.288,0.625,2.699,0.231,4.012c-0.265,0.881-1.821,2.106-0.482,2.886
					c0.324,0.188,0.775,0.21,1.098,0c2.67-1.741,1.683-5.179,0.181-7.331C389.569,134.198,388.7,134.491,388.892,135.134
					L388.892,135.134z"/>
			</g>
		</g>
	</g>
	<g>
		<g>
			<g>
				<path fill="#1C758A" d="M588.473,459.536c-0.768,0.065,0.611-0.989-0.566-0.634c-0.389,0.117-0.772,0.407-1.123,0.602
					c-1.177,0.654-2.301,1.399-3.484,2.046c-0.658,0.359-1.822,0.556-2.226,1.244c-0.951,1.625-1.232,3.563-2.245,5.206
					c-0.54,0.876,0.154,2.104,1.189,2.073c3.125-0.095,8.964-1.959,7.798,3.417c-0.867,3.996-5.45,1.146-7.285,0.141
					c-0.63-0.345-1.238-0.001-1.492,0.607c-1.926,4.615,8.703,5.516,10.797,1.929c1.365-2.34,1.671-5.548-0.253-7.73
					c-2.653-3.009-6.113-1.381-9.564-1.119c0.396,0.691,0.793,1.382,1.189,2.073c0.657-1.185,1.302-4.765,2.26-5.28
					c1.399-0.753,2.774-1.69,4.026-2.666c0.293-0.228,2.736-3.303,0.886-2.599C588.035,458.977,588.049,459.572,588.473,459.536
					L588.473,459.536z"/>
			</g>
		</g>
		<g>
			<g>
				<path fill="#1C758A" d="M594.8,455.635c0.382,1.288,0.624,2.699,0.23,4.012c-0.264,0.881-1.821,2.106-0.482,2.886
					c0.324,0.188,0.776,0.21,1.098,0c2.671-1.74,1.683-5.178,0.182-7.331C595.478,454.699,594.608,454.992,594.8,455.635
					L594.8,455.635z"/>
			</g>
		</g>
	</g>
	<g>
		<g>
			<g>
				<path fill="#C78D46" d="M653.62,14.21c1.601-0.241,3.12-0.785,4.746-0.897c0.876-0.198,1.391,0.155,1.546,1.059
					c-0.374,0.353-0.79,0.646-1.246,0.88c-0.813,0.481-1.733,0.739-2.648,0.935c-1.569,0.335-1.269,2.402,0,2.878
					c1.736,0.651,7.403,3.515,5.175,5.777c-0.717,0.728-2.284,0.666-3.213,0.686c-1.335,0.028-1.899-0.085-2.521-1.162
					c-0.294-0.511-1.068-0.777-1.582-0.415c-2.188,1.545-0.632,3.702,1.283,4.495c2.091,0.866,5.497,0.459,7.439-0.638
					c6.891-3.891-1.877-10.272-5.789-11.621c0,0.959,0,1.918,0,2.878c2.025-0.553,7.618-3.059,5.771-6.116
					c-2.113-3.5-6.717-1.268-9.353,0.333C652.705,13.601,653.075,14.292,653.62,14.21L653.62,14.21z"/>
			</g>
		</g>
		<g>
			<g>
				<path fill="#C78D46" d="M668.317,6.397c-0.026-0.239-0.258-0.645-0.214-0.849c0.089-0.417-0.32-0.737-0.702-0.54
					c-0.777,0.402-0.62,1.472-0.656,2.225c-0.059,1.248-0.032,2.312-0.617,3.447c-0.704,1.366,1.205,2.474,2.051,1.198
					c0.682-1.027,0.685-2.341,0.62-3.529c-0.05-0.908,0.021-2.884-0.915-3.341c-0.218,0.218-0.436,0.436-0.653,0.654
					c0.2,0.28,0.617,0.46,0.719,0.784C668.01,6.64,668.341,6.616,668.317,6.397L668.317,6.397z"/>
			</g>
		</g>
	</g>
	<g>
		<g>
			<g>
				<path fill="#1C758A" d="M252.309,347.033c-0.767,0.065,0.612-0.989-0.566-0.634c-0.389,0.117-0.772,0.407-1.123,0.602
					c-1.177,0.654-2.301,1.399-3.484,2.046c-0.659,0.359-1.822,0.556-2.226,1.244c-0.952,1.625-1.232,3.563-2.245,5.206
					c-0.541,0.876,0.154,2.104,1.189,2.073c3.125-0.095,8.963-1.959,7.798,3.417c-0.867,3.996-5.45,1.146-7.285,0.141
					c-0.63-0.345-1.238-0.001-1.492,0.607c-1.926,4.616,8.703,5.516,10.796,1.929c1.366-2.34,1.671-5.548-0.253-7.73
					c-2.653-3.01-6.113-1.381-9.564-1.119c0.396,0.691,0.793,1.382,1.189,2.073c0.657-1.185,1.302-4.765,2.259-5.28
					c1.4-0.753,2.775-1.69,4.027-2.666c0.292-0.228,2.736-3.303,0.886-2.599C251.871,346.474,251.886,347.069,252.309,347.033
					L252.309,347.033z"/>
			</g>
		</g>
		<g>
			<g>
				<path fill="#1C758A" d="M258.636,343.132c0.382,1.288,0.625,2.698,0.231,4.012c-0.264,0.881-1.822,2.106-0.482,2.886
					c0.324,0.188,0.775,0.21,1.097,0c2.67-1.74,1.683-5.178,0.182-7.331C259.314,342.196,258.445,342.489,258.636,343.132
					L258.636,343.132z"/>
			</g>
		</g>
	</g>
	<g>
		<g>
			<g>
				<path fill="#1C758A" d="M721.994,154.426c-0.769,0.065,0.613-0.99-0.566-0.634c-0.389,0.118-0.772,0.408-1.122,0.603
					c-1.177,0.654-2.301,1.399-3.484,2.045c-0.658,0.359-1.822,0.555-2.226,1.244c-0.951,1.625-1.232,3.563-2.246,5.206
					c-0.541,0.875,0.154,2.104,1.189,2.073c3.125-0.095,8.964-1.959,7.799,3.417c-0.866,3.997-5.451,1.146-7.286,0.141
					c-0.63-0.345-1.238-0.001-1.492,0.607c-1.926,4.616,8.704,5.516,10.798,1.929c1.365-2.339,1.67-5.547-0.254-7.729
					c-2.652-3.01-6.113-1.381-9.564-1.12c0.396,0.691,0.793,1.382,1.189,2.073c0.657-1.184,1.303-4.765,2.26-5.28
					c1.4-0.753,2.775-1.69,4.027-2.666c0.293-0.228,2.736-3.303,0.885-2.599C721.557,153.866,721.57,154.462,721.994,154.426
					L721.994,154.426z"/>
			</g>
		</g>
		<g>
			<g>
				<path fill="#1C758A" d="M728.321,150.524c0.383,1.288,0.625,2.699,0.231,4.012c-0.265,0.881-1.821,2.106-0.482,2.886
					c0.324,0.188,0.775,0.21,1.098,0c2.67-1.741,1.683-5.179,0.181-7.331C728.999,149.589,728.13,149.881,728.321,150.524
					L728.321,150.524z"/>
			</g>
		</g>
		<g>
			<g>
				<g>
					<path fill="#C78D46" d="M534.128,377.647c1.601-0.24,3.12-0.784,4.746-0.896c0.876-0.198,1.391,0.154,1.546,1.06
						c-0.374,0.352-0.79,0.646-1.246,0.88c-0.813,0.48-1.733,0.738-2.648,0.935c-1.569,0.335-1.269,2.401,0,2.877
						c1.736,0.652,7.403,3.516,5.175,5.777c-0.717,0.729-2.284,0.666-3.213,0.686c-1.335,0.028-1.899-0.085-2.521-1.162
						c-0.294-0.511-1.068-0.776-1.582-0.414c-2.188,1.545-0.632,3.701,1.283,4.494c2.091,0.866,5.497,0.46,7.439-0.637
						c6.891-3.892-1.877-10.272-5.789-11.621c0,0.959,0,1.918,0,2.877c2.025-0.552,7.618-3.059,5.771-6.115
						c-2.113-3.5-6.717-1.268-9.353,0.333C533.213,377.038,533.583,377.729,534.128,377.647L534.128,377.647z"/>
				</g>
			</g>
			<g>
				<g>
					<path fill="#C78D46" d="M548.825,369.836c-0.026-0.239-0.258-0.646-0.214-0.85c0.091-0.416-0.321-0.739-0.702-0.54
						c-0.776,0.406-0.62,1.47-0.656,2.226c-0.059,1.247-0.032,2.312-0.617,3.446c-0.704,1.366,1.205,2.474,2.051,1.199
						c0.682-1.027,0.685-2.342,0.62-3.529c-0.05-0.91,0.021-2.881-0.915-3.342c-0.218,0.218-0.437,0.437-0.654,0.654
						c0.201,0.279,0.618,0.461,0.72,0.785C548.518,370.079,548.849,370.055,548.825,369.836L548.825,369.836z"/>
				</g>
			</g>
		</g>
	</g>
</g>
<g id="Text">
</g>
</svg>
